<?xml version="1.0" encoding="UTF-8" standalone="no"?>
<!-- Generator: Adobe Illustrator 16.0.0, SVG Export Plug-In . SVG Version: 6.00 Build 0)  -->

<svg
   xmlns:dc="http://purl.org/dc/elements/1.1/"
   xmlns:cc="http://creativecommons.org/ns#"
   xmlns:rdf="http://www.w3.org/1999/02/22-rdf-syntax-ns#"
   xmlns:svg="http://www.w3.org/2000/svg"
   xmlns="http://www.w3.org/2000/svg"
   xmlns:xlink="http://www.w3.org/1999/xlink"
   xmlns:sodipodi="http://sodipodi.sourceforge.net/DTD/sodipodi-0.dtd"
   xmlns:inkscape="http://www.inkscape.org/namespaces/inkscape"
   version="1.1"
   id="Layer_1"
   x="0px"
   y="0px"
   width="403px"
   height="311.81px"
   viewBox="0 0 403 311.81"
   enable-background="new 0 0 403 311.81"
   xml:space="preserve"
   sodipodi:docname="letter-m.svg"
   inkscape:version="0.92+devel (unknown)"><metadata
   id="metadata1875"><rdf:RDF><cc:Work
       rdf:about=""><dc:format>image/svg+xml</dc:format><dc:type
         rdf:resource="http://purl.org/dc/dcmitype/StillImage" /><dc:title></dc:title></cc:Work></rdf:RDF></metadata><defs
   id="defs1873" /><sodipodi:namedview
   pagecolor="#ffffff"
   bordercolor="#666666"
   inkscape:document-rotation="0"
   borderopacity="1"
   objecttolerance="10"
   gridtolerance="10"
   guidetolerance="10"
   inkscape:pageopacity="0"
   inkscape:pageshadow="2"
   inkscape:window-width="1680"
   inkscape:window-height="1023"
   id="namedview1871"
   showgrid="false"
   inkscape:zoom="2.4758667"
   inkscape:cx="201.5"
   inkscape:cy="155.905"
   inkscape:window-x="0"
   inkscape:window-y="27"
   inkscape:window-maximized="1"
   inkscape:current-layer="Layer_1" />
<pattern
   x="-251"
   width="28.8"
   height="28.8"
   patternUnits="userSpaceOnUse"
   id="_x31_0_dpi_30_x25_"
   viewBox="0 -28.8 28.8 28.8"
   overflow="visible">
	<g
   id="g1389">
		<polygon
   fill="none"
   points="0,-28.8 28.8,-28.8 28.8,0 0,0   "
   id="polygon1369" />
		<g
   id="g1387">
			<path
   fill="#FFFFFF"
   d="M25.2-1.44c1.191,0,2.16-0.967,2.16-2.16s-0.969-2.16-2.16-2.16c-1.193,0-2.16,0.967-2.16,2.16     S24.007-1.44,25.2-1.44z"
   id="path1371" />
			<path
   fill="#FFFFFF"
   d="M10.8-1.44c1.193,0,2.16-0.967,2.16-2.16s-0.967-2.16-2.16-2.16S8.64-4.793,8.64-3.6     S9.606-1.44,10.8-1.44z"
   id="path1373" />
			<path
   fill="#FFFFFF"
   d="M25.2-15.84c1.191,0,2.16-0.967,2.16-2.16s-0.969-2.16-2.16-2.16c-1.193,0-2.16,0.967-2.16,2.16     S24.007-15.84,25.2-15.84z"
   id="path1375" />
			<path
   fill="#FFFFFF"
   d="M10.8-15.84c1.193,0,2.16-0.967,2.16-2.16s-0.967-2.16-2.16-2.16S8.64-19.194,8.64-18     S9.606-15.84,10.8-15.84z"
   id="path1377" />
			<path
   fill="#FFFFFF"
   d="M3.601-8.641c1.191,0,2.16-0.967,2.16-2.16c0-1.191-0.969-2.158-2.16-2.158     c-1.193,0-2.16,0.967-2.16,2.158C1.44-9.608,2.407-8.641,3.601-8.641z"
   id="path1379" />
			<path
   fill="#FFFFFF"
   d="M18.001-8.641c1.191,0,2.16-0.967,2.16-2.16c0-1.191-0.969-2.158-2.16-2.158     c-1.193,0-2.16,0.967-2.16,2.158C15.841-9.608,16.808-8.641,18.001-8.641z"
   id="path1381" />
			<path
   fill="#FFFFFF"
   d="M3.601-23.042c1.191,0,2.16-0.967,2.16-2.158c0-1.193-0.969-2.16-2.16-2.16     c-1.193,0-2.16,0.967-2.16,2.16C1.44-24.008,2.407-23.042,3.601-23.042z"
   id="path1383" />
			<path
   fill="#FFFFFF"
   d="M18.001-23.042c1.191,0,2.16-0.967,2.16-2.158c0-1.193-0.969-2.16-2.16-2.16     c-1.193,0-2.16,0.967-2.16,2.16C15.841-24.008,16.808-23.042,18.001-23.042z"
   id="path1385" />
		</g>
	</g>
</pattern>
<pattern
   x="-251"
   width="72"
   height="72"
   patternUnits="userSpaceOnUse"
   id="_x31_0_lpi_40_x25_"
   viewBox="72.25 -72 72 72"
   overflow="visible">
	<g
   id="g1460">
		<polygon
   fill="none"
   points="72.25,-72 144.25,-72 144.25,0 72.25,0   "
   id="polygon1392" />
		<g
   id="g1414">
			<line
   fill="none"
   stroke="#68AE23"
   stroke-width="2.88"
   x1="144"
   y1="-3.6"
   x2="216.5"
   y2="-3.6"
   id="line1394" />
			<line
   fill="none"
   stroke="#68AE23"
   stroke-width="2.88"
   x1="144"
   y1="-18"
   x2="216.5"
   y2="-18"
   id="line1396" />
			<line
   fill="none"
   stroke="#68AE23"
   stroke-width="2.88"
   x1="144"
   y1="-32.399"
   x2="216.5"
   y2="-32.399"
   id="line1398" />
			<line
   fill="none"
   stroke="#68AE23"
   stroke-width="2.88"
   x1="144"
   y1="-46.8"
   x2="216.5"
   y2="-46.8"
   id="line1400" />
			<line
   fill="none"
   stroke="#68AE23"
   stroke-width="2.88"
   x1="144"
   y1="-61.199"
   x2="216.5"
   y2="-61.199"
   id="line1402" />
			<line
   fill="none"
   stroke="#68AE23"
   stroke-width="2.88"
   x1="144"
   y1="-10.8"
   x2="216.5"
   y2="-10.8"
   id="line1404" />
			<line
   fill="none"
   stroke="#68AE23"
   stroke-width="2.88"
   x1="144"
   y1="-25.199"
   x2="216.5"
   y2="-25.199"
   id="line1406" />
			<line
   fill="none"
   stroke="#68AE23"
   stroke-width="2.88"
   x1="144"
   y1="-39.6"
   x2="216.5"
   y2="-39.6"
   id="line1408" />
			<line
   fill="none"
   stroke="#68AE23"
   stroke-width="2.88"
   x1="144"
   y1="-54"
   x2="216.5"
   y2="-54"
   id="line1410" />
			<line
   fill="none"
   stroke="#68AE23"
   stroke-width="2.88"
   x1="144"
   y1="-68.399"
   x2="216.5"
   y2="-68.399"
   id="line1412" />
		</g>
		<g
   id="g1436">
			<line
   fill="none"
   stroke="#68AE23"
   stroke-width="2.88"
   x1="72"
   y1="-3.6"
   x2="144.5"
   y2="-3.6"
   id="line1416" />
			<line
   fill="none"
   stroke="#68AE23"
   stroke-width="2.88"
   x1="72"
   y1="-18"
   x2="144.5"
   y2="-18"
   id="line1418" />
			<line
   fill="none"
   stroke="#68AE23"
   stroke-width="2.88"
   x1="72"
   y1="-32.399"
   x2="144.5"
   y2="-32.399"
   id="line1420" />
			<line
   fill="none"
   stroke="#68AE23"
   stroke-width="2.88"
   x1="72"
   y1="-46.8"
   x2="144.5"
   y2="-46.8"
   id="line1422" />
			<line
   fill="none"
   stroke="#68AE23"
   stroke-width="2.88"
   x1="72"
   y1="-61.199"
   x2="144.5"
   y2="-61.199"
   id="line1424" />
			<line
   fill="none"
   stroke="#68AE23"
   stroke-width="2.88"
   x1="72"
   y1="-10.8"
   x2="144.5"
   y2="-10.8"
   id="line1426" />
			<line
   fill="none"
   stroke="#68AE23"
   stroke-width="2.88"
   x1="72"
   y1="-25.199"
   x2="144.5"
   y2="-25.199"
   id="line1428" />
			<line
   fill="none"
   stroke="#68AE23"
   stroke-width="2.88"
   x1="72"
   y1="-39.6"
   x2="144.5"
   y2="-39.6"
   id="line1430" />
			<line
   fill="none"
   stroke="#68AE23"
   stroke-width="2.88"
   x1="72"
   y1="-54"
   x2="144.5"
   y2="-54"
   id="line1432" />
			<line
   fill="none"
   stroke="#68AE23"
   stroke-width="2.88"
   x1="72"
   y1="-68.399"
   x2="144.5"
   y2="-68.399"
   id="line1434" />
		</g>
		<g
   id="g1458">
			<line
   fill="none"
   stroke="#68AE23"
   stroke-width="2.88"
   x1="0"
   y1="-3.6"
   x2="72.5"
   y2="-3.6"
   id="line1438" />
			<line
   fill="none"
   stroke="#68AE23"
   stroke-width="2.88"
   x1="0"
   y1="-18"
   x2="72.5"
   y2="-18"
   id="line1440" />
			<line
   fill="none"
   stroke="#68AE23"
   stroke-width="2.88"
   x1="0"
   y1="-32.399"
   x2="72.5"
   y2="-32.399"
   id="line1442" />
			<line
   fill="none"
   stroke="#68AE23"
   stroke-width="2.88"
   x1="0"
   y1="-46.8"
   x2="72.5"
   y2="-46.8"
   id="line1444" />
			<line
   fill="none"
   stroke="#68AE23"
   stroke-width="2.88"
   x1="0"
   y1="-61.199"
   x2="72.5"
   y2="-61.199"
   id="line1446" />
			<line
   fill="none"
   stroke="#68AE23"
   stroke-width="2.88"
   x1="0"
   y1="-10.8"
   x2="72.5"
   y2="-10.8"
   id="line1448" />
			<line
   fill="none"
   stroke="#68AE23"
   stroke-width="2.88"
   x1="0"
   y1="-25.199"
   x2="72.5"
   y2="-25.199"
   id="line1450" />
			<line
   fill="none"
   stroke="#68AE23"
   stroke-width="2.88"
   x1="0"
   y1="-39.6"
   x2="72.5"
   y2="-39.6"
   id="line1452" />
			<line
   fill="none"
   stroke="#68AE23"
   stroke-width="2.88"
   x1="0"
   y1="-54"
   x2="72.5"
   y2="-54"
   id="line1454" />
			<line
   fill="none"
   stroke="#68AE23"
   stroke-width="2.88"
   x1="0"
   y1="-68.399"
   x2="72.5"
   y2="-68.399"
   id="line1456" />
		</g>
	</g>
</pattern>
<pattern
   x="-251"
   width="72"
   height="72"
   patternUnits="userSpaceOnUse"
   id="_x31_0_lpi_50_x25_"
   viewBox="72.25 -72 72 72"
   overflow="visible">
	<g
   id="g1531">
		<polygon
   fill="none"
   points="72.25,-72 144.25,-72 144.25,0 72.25,0   "
   id="polygon1463" />
		<g
   id="g1485">
			<line
   fill="none"
   stroke="#FFDD4C"
   stroke-width="3.6"
   x1="144"
   y1="-3.601"
   x2="216.5"
   y2="-3.601"
   id="line1465" />
			<line
   fill="none"
   stroke="#FFDD4C"
   stroke-width="3.6"
   x1="144"
   y1="-18"
   x2="216.5"
   y2="-18"
   id="line1467" />
			<line
   fill="none"
   stroke="#FFDD4C"
   stroke-width="3.6"
   x1="144"
   y1="-32.4"
   x2="216.5"
   y2="-32.4"
   id="line1469" />
			<line
   fill="none"
   stroke="#FFDD4C"
   stroke-width="3.6"
   x1="144"
   y1="-46.801"
   x2="216.5"
   y2="-46.801"
   id="line1471" />
			<line
   fill="none"
   stroke="#FFDD4C"
   stroke-width="3.6"
   x1="144"
   y1="-61.2"
   x2="216.5"
   y2="-61.2"
   id="line1473" />
			<line
   fill="none"
   stroke="#FFDD4C"
   stroke-width="3.6"
   x1="144"
   y1="-10.801"
   x2="216.5"
   y2="-10.801"
   id="line1475" />
			<line
   fill="none"
   stroke="#FFDD4C"
   stroke-width="3.6"
   x1="144"
   y1="-25.2"
   x2="216.5"
   y2="-25.2"
   id="line1477" />
			<line
   fill="none"
   stroke="#FFDD4C"
   stroke-width="3.6"
   x1="144"
   y1="-39.601"
   x2="216.5"
   y2="-39.601"
   id="line1479" />
			<line
   fill="none"
   stroke="#FFDD4C"
   stroke-width="3.6"
   x1="144"
   y1="-54"
   x2="216.5"
   y2="-54"
   id="line1481" />
			<line
   fill="none"
   stroke="#FFDD4C"
   stroke-width="3.6"
   x1="144"
   y1="-68.4"
   x2="216.5"
   y2="-68.4"
   id="line1483" />
		</g>
		<g
   id="g1507">
			<line
   fill="none"
   stroke="#FFDD4C"
   stroke-width="3.6"
   x1="72"
   y1="-3.601"
   x2="144.5"
   y2="-3.601"
   id="line1487" />
			<line
   fill="none"
   stroke="#FFDD4C"
   stroke-width="3.6"
   x1="72"
   y1="-18"
   x2="144.5"
   y2="-18"
   id="line1489" />
			<line
   fill="none"
   stroke="#FFDD4C"
   stroke-width="3.6"
   x1="72"
   y1="-32.4"
   x2="144.5"
   y2="-32.4"
   id="line1491" />
			<line
   fill="none"
   stroke="#FFDD4C"
   stroke-width="3.6"
   x1="72"
   y1="-46.801"
   x2="144.5"
   y2="-46.801"
   id="line1493" />
			<line
   fill="none"
   stroke="#FFDD4C"
   stroke-width="3.6"
   x1="72"
   y1="-61.2"
   x2="144.5"
   y2="-61.2"
   id="line1495" />
			<line
   fill="none"
   stroke="#FFDD4C"
   stroke-width="3.6"
   x1="72"
   y1="-10.801"
   x2="144.5"
   y2="-10.801"
   id="line1497" />
			<line
   fill="none"
   stroke="#FFDD4C"
   stroke-width="3.6"
   x1="72"
   y1="-25.2"
   x2="144.5"
   y2="-25.2"
   id="line1499" />
			<line
   fill="none"
   stroke="#FFDD4C"
   stroke-width="3.6"
   x1="72"
   y1="-39.601"
   x2="144.5"
   y2="-39.601"
   id="line1501" />
			<line
   fill="none"
   stroke="#FFDD4C"
   stroke-width="3.6"
   x1="72"
   y1="-54"
   x2="144.5"
   y2="-54"
   id="line1503" />
			<line
   fill="none"
   stroke="#FFDD4C"
   stroke-width="3.6"
   x1="72"
   y1="-68.4"
   x2="144.5"
   y2="-68.4"
   id="line1505" />
		</g>
		<g
   id="g1529">
			<line
   fill="none"
   stroke="#FFDD4C"
   stroke-width="3.6"
   x1="0"
   y1="-3.601"
   x2="72.5"
   y2="-3.601"
   id="line1509" />
			<line
   fill="none"
   stroke="#FFDD4C"
   stroke-width="3.6"
   x1="0"
   y1="-18"
   x2="72.5"
   y2="-18"
   id="line1511" />
			<line
   fill="none"
   stroke="#FFDD4C"
   stroke-width="3.6"
   x1="0"
   y1="-32.4"
   x2="72.5"
   y2="-32.4"
   id="line1513" />
			<line
   fill="none"
   stroke="#FFDD4C"
   stroke-width="3.6"
   x1="0"
   y1="-46.801"
   x2="72.5"
   y2="-46.801"
   id="line1515" />
			<line
   fill="none"
   stroke="#FFDD4C"
   stroke-width="3.6"
   x1="0"
   y1="-61.2"
   x2="72.5"
   y2="-61.2"
   id="line1517" />
			<line
   fill="none"
   stroke="#FFDD4C"
   stroke-width="3.6"
   x1="0"
   y1="-10.801"
   x2="72.5"
   y2="-10.801"
   id="line1519" />
			<line
   fill="none"
   stroke="#FFDD4C"
   stroke-width="3.6"
   x1="0"
   y1="-25.2"
   x2="72.5"
   y2="-25.2"
   id="line1521" />
			<line
   fill="none"
   stroke="#FFDD4C"
   stroke-width="3.6"
   x1="0"
   y1="-39.601"
   x2="72.5"
   y2="-39.601"
   id="line1523" />
			<line
   fill="none"
   stroke="#FFDD4C"
   stroke-width="3.6"
   x1="0"
   y1="-54"
   x2="72.5"
   y2="-54"
   id="line1525" />
			<line
   fill="none"
   stroke="#FFDD4C"
   stroke-width="3.6"
   x1="0"
   y1="-68.4"
   x2="72.5"
   y2="-68.4"
   id="line1527" />
		</g>
	</g>
</pattern>
<ellipse
   fill="#F3A24F"
   cx="340.071"
   cy="243.938"
   rx="30.281"
   ry="6.349"
   id="ellipse1534" />
<polygon
   fill="#F3A24F"
   points="216.451,256.465 193.585,253.291 141.628,229.967 182.062,225.148 262.78,244.096 255.771,250.141   "
   id="polygon1536" />
<polygon
   fill="#F3A24F"
   points="78.557,268.949 142.4,263.582 131.035,249.285 "
   id="polygon1538" />
<g
   id="g1542">
	<path
   fill="#F3A24F"
   d="M179.968,255.139c0,0.945-1.369,1.627-3.217,2.373c-1.067,0.431-2.269,1.232-3.8,1.559   c-1.227,0.26-2.654,0.051-4.113,0.228c-1.287,0.155-2.615,0.712-4.041,0.79c-1.32,0.074-2.702-0.324-4.108-0.324   c-1.405,0-2.788,0.398-4.106,0.324c-1.427-0.078-2.756-0.635-4.043-0.79c-1.461-0.177-2.892,0.032-4.118-0.229   c-1.531-0.325-2.731-1.127-3.798-1.559c-1.846-0.746-3.214-1.426-3.214-2.371c0-0.947,1.369-1.627,3.217-2.373   c1.067-0.432,2.269-1.233,3.8-1.559c1.227-0.261,2.654-0.052,4.113-0.229c1.287-0.155,2.615-0.711,4.041-0.79   c1.32-0.073,2.702,0.325,4.108,0.325s2.788-0.398,4.106-0.325c1.427,0.079,2.756,0.635,4.043,0.79   c1.461,0.178,2.892-0.031,4.119,0.229c1.531,0.326,2.73,1.129,3.798,1.56C178.6,253.513,179.968,254.192,179.968,255.139z"
   id="path1540" />
</g>
<g
   id="g1548">
	<path
   fill="#FFDA7B"
   d="M154.202,250.905c-0.488,0-1.283-0.896-1.714-1.429l-0.063-0.077l-0.005-0.099   c-0.004-0.079-0.406-7.897-0.682-10.619c-0.046-0.456,0.041-0.811,0.26-1.053c0.205-0.228,0.51-0.343,0.906-0.343   c1.523,0,4.247,1.771,4.362,1.847l0.187,0.122l-0.061,0.216c-1.11,3.937-2.751,10.064-2.724,10.813   c0.008,0.218-0.04,0.378-0.146,0.488C154.439,250.858,154.326,250.905,154.202,250.905z"
   id="path1544" />
	<path
   fill="#1A171B"
   d="M152.905,237.591c1.45,0,4.195,1.797,4.195,1.797s-2.774,9.839-2.735,10.907   c0.008,0.219-0.056,0.306-0.163,0.306c-0.415,0-1.477-1.315-1.477-1.315s-0.403-7.873-0.684-10.634   C151.962,237.871,152.333,237.591,152.905,237.591 M152.905,236.981L152.905,236.981c-0.486,0-0.867,0.149-1.132,0.443   c-0.279,0.309-0.393,0.742-0.337,1.288c0.275,2.714,0.677,10.524,0.681,10.604l0.01,0.197l0.124,0.154   c1.245,1.542,1.776,1.542,1.951,1.542c0.208,0,0.399-0.08,0.54-0.227c0.165-0.171,0.242-0.409,0.231-0.711   c-0.016-0.656,1.386-6.013,2.712-10.72l0.122-0.43l-0.374-0.245C157.137,238.684,154.491,236.981,152.905,236.981L152.905,236.981z   "
   id="path1546" />
</g>
<g
   id="g1554">
	<path
   fill="#FFDA7B"
   d="M163.38,251.231c-0.503,0-1.416-0.9-1.785-1.287l-0.065-0.067l-0.015-0.093   c-0.009-0.055-0.909-5.47-1.408-8.164c-0.091-0.489-0.041-0.841,0.154-1.074c0.102-0.122,0.295-0.269,0.636-0.269   c1.194,0,3.556,1.919,3.822,2.138l0.135,0.111l-0.028,0.173c-0.309,1.906-1.089,7.037-0.989,7.873   c0.027,0.225-0.011,0.393-0.117,0.512C163.636,251.179,163.515,251.231,163.38,251.231z"
   id="path1550" />
	<path
   fill="#1A171B"
   d="M160.896,240.582c1.12,0,3.628,2.068,3.628,2.068s-1.118,6.896-0.99,7.958   c0.027,0.229-0.037,0.318-0.154,0.318c-0.427,0-1.565-1.192-1.565-1.192s-0.903-5.441-1.409-8.17   C160.273,240.847,160.496,240.582,160.896,240.582 M160.896,239.973L160.896,239.973c-0.458,0-0.726,0.206-0.87,0.379   c-0.255,0.308-0.327,0.74-0.219,1.324c0.499,2.691,1.398,8.104,1.407,8.158l0.03,0.186l0.13,0.136   c0.874,0.916,1.549,1.38,2.005,1.38c0.223,0,0.424-0.088,0.567-0.249c0.165-0.186,0.229-0.438,0.191-0.751   c-0.085-0.711,0.56-5.153,0.987-7.787l0.056-0.345l-0.27-0.223C164.465,241.812,162.17,239.973,160.896,239.973L160.896,239.973z"
   id="path1552" />
</g>
<path
   fill="#EB7037"
   d="M319.011,76.964c0,0,4.349,0.804,6.771-0.35c3.361-1.603,3.361-2.993,3.361-2.993l0.283-4.264  c0,0-1.805,4.445-5.683,5.239c-3.88,0.794-4.339,0.416-4.339,0.416L319.011,76.964z"
   id="path1556" />
<path
   fill="#EB7037"
   d="M357.109,75.012c0,0,0.721,0.771,3.146,1.428c2.427,0.656,6.952-0.711,9.837-3.142  c0,0-5.981,2.939-10.138,0.221c0,0-2.78-2.456-2.846-4.161V75.012z"
   id="path1558" />
<path
   fill="#E7E78F"
   stroke="#1A171B"
   stroke-width="1.3264"
   stroke-linejoin="round"
   stroke-miterlimit="10"
   d="M372.865,56.119  c0-4.8-4.102-4.181-4.102-4.181l-25.754,1.061l-27.278-1.111c0,0-2.729,0.151-2.729,3.031s0,11.246,0,11.246h0.031  c-0.016,0.214-0.031,0.43-0.031,0.649c0,4.528,3.672,8.198,8.197,8.198c4.381,0,7.949-3.438,8.175-7.763l0.052,0.005  c0-0.264-0.019-0.524-0.045-0.78c-0.007-0.103-0.01-0.207-0.018-0.309l0.295,0.18c0,0-5.915,96.899-5.915,135.562  c0,0-3.104-1.365-4.483,3.014c-0.251,0.8-0.254,1.408-0.1,1.897l0,0v0.001c0.687,2.184,4.523,1.936,3.464,5.283  c-1.291,4.096-4.312,6.252-5.174,9.486c-0.862,3.233-2.155,12.506-1.94,20.914c0,0-0.862,6.271,27.935,6.271  c26.907,0,26.883-6.271,26.883-6.271c0.214-8.408-1.079-17.681-1.94-20.914c-0.861-3.234-3.882-5.391-5.176-9.486  c-1.292-4.098,4.745-2.805,3.365-7.182c-1.198-3.811-3.705-3.271-4.334-3.067c-0.005-38.698-5.896-135.508-5.896-135.508l0.156-0.18  c-0.008,0.109-0.011,0.22-0.017,0.331c-0.025,0.25-0.042,0.502-0.042,0.759l0.048-0.005c0.229,4.325,3.796,7.763,8.177,7.763  c4.528,0,8.197-3.67,8.197-8.198c0-0.22-0.016-0.435-0.032-0.649h0.032C372.865,66.165,372.865,60.92,372.865,56.119z"
   id="path1560" />
<path
   fill="#EB7037"
   d="M331.076,203.798c0,0,3.018-126.008,4.632-138.519c0,0-4.145-0.488-3.768-4.12  c0.376-3.632,1.434-8.552,1.434-8.552s-18.444-2.313-19.409,0c-0.963,2.313-1.837,8.308-0.963,14.624  c0.873,6.315,8.045,10.068,12.276,6.405c4.231-3.664,3.733-3.997,3.733-3.997s-3.727,79.412-3.984,85.725  c-0.255,6.313-1.284,46.542-1.284,46.542s-4.383,1.115-4.483,3.014c-0.1,1.898,11.084,6.307,11.395,4.357  C330.966,207.326,331.042,205.172,331.076,203.798z"
   id="path1562" />
<path
   fill="#EB7037"
   d="M330.654,228.899c6.168-17.11,54.345-19.136,2.72-17.163c-4.164,0.158-8.353-0.6-13.114-3.776  c7.248,2.404-1.978,9.329-2.81,13.628c-0.831,4.299-2.972,12.777-1.954,17.732c1.018,4.96-0.508,5.611,3.664,6.529  c4.169,0.916,10.15,2.254,10.15,2.254S327.935,236.442,330.654,228.899z"
   id="path1564" />
<path
   fill="none"
   stroke="#CBBD78"
   stroke-width="1.9896"
   stroke-miterlimit="10"
   d="M327.935,203.798  c0,0,1.743-111.956,5.439-137.796"
   id="path1566" />
<path
   fill="none"
   stroke="#BDAF60"
   stroke-width="3.316"
   stroke-miterlimit="10"
   d="M333.374,204.564  c0,0,2.647-112.104,4.668-138.712"
   id="path1568" />
<path
   fill="none"
   stroke="#ADA059"
   stroke-width="2.6528"
   stroke-miterlimit="10"
   d="M347.824,204.92  c-0.51-61.41-0.449-107.994-1.856-138.918"
   id="path1570" />
<path
   fill="none"
   stroke="#FFFAF1"
   stroke-width="1.3264"
   stroke-miterlimit="10"
   d="M351.975,204.92  c-0.51-61.41-1.377-108.144-2.784-139.067"
   id="path1572" />
<path
   fill="none"
   stroke="#FFFAF1"
   stroke-width="1.3264"
   stroke-miterlimit="10"
   d="M338.042,204.838  c2.335-63.113,1.428-123.5,3.168-138.985"
   id="path1574" />
<path
   fill="none"
   stroke="#93894C"
   stroke-width="1.9896"
   stroke-miterlimit="10"
   d="M357.363,203.938  c-0.51-61.41-3.22-107.012-4.626-137.936"
   id="path1576" />
<path
   fill="#EB7037"
   d="M329.683,70.898c0,0,0.42-1.52,2.44-0.865c0,0,0.972-0.904,2.219-0.164c0,0,0.639-1.286,2.163-0.292  c0,0,1.1-1.603,3.304-0.376c0,0,1.658-1.463,3.309,0.176c0,0,1.404-1.229,3.102,0.075c0,0,2.252-1.32,3.154,0.516  c0,0,1.52-1.574,2.786,0.59c0,0,1.263-1.09,1.985,0.34c0,0,0.721-1.455,1.969,0.381v-5.168c0,0-10.213-0.906-16.789-0.618  c-6.575,0.289-9.483,0.774-9.483,0.774L329.683,70.898z"
   id="path1578" />
<g
   id="g1600">
	<g
   id="g1582">
		<path
   fill="none"
   stroke="#1A171B"
   stroke-width="1.3264"
   stroke-linejoin="round"
   stroke-miterlimit="10"
   d="M356.346,66.345    c0,0,5.896,96.899,5.896,135.562c0,0-0.73,3.014-19.25,3.014s-19.249-3.014-19.249-3.014c0-38.662,5.915-135.562,5.915-135.562    s0.515-0.775,13.343-0.775C355.83,65.57,356.346,66.345,356.346,66.345z"
   id="path1580" />
	</g>
	<path
   fill="none"
   stroke="#1A171B"
   stroke-width="1.3264"
   stroke-linejoin="round"
   stroke-miterlimit="10"
   d="M356.502,66.165   c-0.017,0.214-0.031,0.43-0.031,0.649c0,4.528,3.67,8.198,8.197,8.198c4.528,0,8.197-3.67,8.197-8.198   c0-0.22-0.016-0.435-0.032-0.649h0.032c0,0,0-5.245,0-10.046c0-4.8-4.102-4.181-4.102-4.181l-25.754,1.061l-27.278-1.111   c0,0-2.729,0.151-2.729,3.031s0,11.246,0,11.246h0.031c-0.016,0.214-0.031,0.43-0.031,0.649c0,4.528,3.672,8.198,8.197,8.198   c4.526,0,8.197-3.67,8.197-8.198c0-0.22-0.016-0.435-0.033-0.649"
   id="path1584" />
	<path
   fill="none"
   stroke="#1A171B"
   stroke-width="1.3264"
   stroke-linejoin="round"
   stroke-miterlimit="10"
   d="M356.443,67.254   c0-3.896,3.158-7.056,7.057-7.056c3.117,0,5.645,2.527,5.645,5.645c0,2.494-2.022,4.515-4.517,4.515   c-1.995,0-3.612-1.618-3.612-3.612c0-1.597,1.294-2.889,2.89-2.889c1.278,0,2.312,1.034,2.312,2.311c0,1.022-0.825,1.85-1.848,1.85   c-0.816,0-1.48-0.663-1.48-1.48c0-0.653,0.53-1.183,1.184-1.183"
   id="path1586" />
	<path
   fill="none"
   stroke="#1A171B"
   stroke-width="1.3264"
   stroke-linejoin="round"
   stroke-miterlimit="10"
   d="M329.426,67.254   c0-3.896-3.159-7.056-7.057-7.056c-3.118,0-5.645,2.527-5.645,5.645c0,2.494,2.021,4.515,4.516,4.515   c1.994,0,3.613-1.618,3.613-3.612c0-1.597-1.295-2.889-2.891-2.889c-1.276,0-2.312,1.034-2.312,2.311c0,1.022,0.827,1.85,1.85,1.85   c0.816,0,1.479-0.663,1.479-1.48c0-0.653-0.53-1.183-1.184-1.183c-0.522,0-0.946,0.423-0.946,0.946"
   id="path1588" />
	<path
   fill="none"
   stroke="#1A171B"
   stroke-width="1.3264"
   stroke-linejoin="round"
   stroke-miterlimit="10"
   d="M362.095,201.906   c0,0,3.104-1.365,4.481,3.014c1.38,4.377-4.657,3.084-3.365,7.182c1.294,4.096,4.314,6.252,5.176,9.486   c0.861,3.233,2.154,12.506,1.94,20.914c0,0,0.024,6.271-26.883,6.271c-28.797,0-27.935-6.271-27.935-6.271   c-0.215-8.408,1.078-17.681,1.94-20.914c0.862-3.234,3.883-5.391,5.174-9.486c1.296-4.098-4.741-2.805-3.364-7.182   c1.379-4.379,4.483-3.014,4.483-3.014"
   id="path1590" />
	<path
   fill="none"
   stroke="#1A171B"
   stroke-width="1.3264"
   stroke-linejoin="round"
   stroke-miterlimit="10"
   d="M319.16,206.817   c0,0,2.582,5.491,23.832,4.87"
   id="path1592" />
	<path
   fill="none"
   stroke="#1A171B"
   stroke-width="1.3264"
   stroke-linejoin="round"
   stroke-miterlimit="10"
   d="M368.387,221.588   c0,0-4.918,4.842-31.299,4.531"
   id="path1594" />
	<polyline
   fill="none"
   stroke="#1A171B"
   stroke-width="1.3264"
   stroke-linejoin="round"
   stroke-miterlimit="10"
   points="   320.771,55.16 343.01,59.719 367.453,55.16  "
   id="polyline1596" />
	<polyline
   fill="none"
   stroke="#1A171B"
   stroke-width="1.3264"
   stroke-linejoin="round"
   stroke-miterlimit="10"
   points="   331.093,60.198 343.01,62.12 354.971,60.198  "
   id="polyline1598" />
</g>
<g
   id="g1656">
	<ellipse
   fill="#F3A24F"
   cx="297.207"
   cy="250.148"
   rx="20.018"
   ry="4.198"
   id="ellipse1602" />
	<g
   id="g1654">
		<path
   fill="#FFFFFF"
   stroke="#1A171B"
   stroke-width="1.0797"
   stroke-linejoin="round"
   stroke-miterlimit="10"
   d="M325.21,167.66    c0,0-3.259,5.793-6.553,8.297c-3.296,2.503-11.82,1.895-11.82,1.895l-2.51,7.164c0,0,12.517-1.729,15.514-3.445    s7.443-11.156,7.443-11.156L325.21,167.66z"
   id="path1604" />
		<path
   fill="#FFFFFF"
   stroke="#1A171B"
   stroke-width="1.0797"
   stroke-linejoin="round"
   stroke-miterlimit="10"
   d="M297.26,200.932    l-6.721,2.936l-8.274-2.638c0,0,0.726-24.173,2.688-26.241c4.364-4.602,16.155-1.21,16.155-1.21s3.937,2.124,5.729,4.073    c0.38,0.414,0.665,0.82,0.794,1.197C308.365,181.197,297.26,200.932,297.26,200.932z"
   id="path1606" />
		<path
   fill="#FFFFFF"
   stroke="#1A171B"
   stroke-width="0.7431"
   stroke-miterlimit="10"
   d="M302.066,175.266    c0,0-2.58,12.271-4.859,17.068"
   id="path1608" />
		<path
   fill="#FFFFFF"
   stroke="#1A171B"
   stroke-width="0.7431"
   stroke-miterlimit="10"
   d="M295.923,196.719    c0,0-0.856,1.831-0.178,3.002"
   id="path1610" />
		<path
   fill="#FFDA7B"
   stroke="#1A171B"
   stroke-width="0.7046"
   stroke-miterlimit="10"
   d="M325.21,167.66    c0,0,0.525-1.201,1.377-2.209c4.153-6.411,3.597-2.648,2.617-1.328c0.341,0.062,0.696,0.223,1.058,0.513    c1.143,0.911,3.764,3.024,1.97,4.856c-1.106,1.131-2.593,1.68-2.593,1.68l-3.144,0.838L325.21,167.66z"
   id="path1612" />
		<path
   fill="#FFFFFF"
   stroke="#1A171B"
   stroke-width="0.9255"
   stroke-linejoin="round"
   stroke-miterlimit="10"
   d="M298.915,178.92    l3.587-4.158l-8.563-4.348l-1.903,1.915c0,0-0.968,1.456,2.524,4.374C297.359,178.754,298.915,178.92,298.915,178.92z"
   id="path1614" />
		<polygon
   fill="#FFFFFF"
   stroke="#1A171B"
   stroke-width="0.9255"
   stroke-linejoin="round"
   stroke-miterlimit="10"
   points="    305.152,176.892 304.197,173.906 302.768,174.769 304.111,179.5   "
   id="polygon1616" />
		<path
   fill="#A3441A"
   stroke="#1A171B"
   stroke-width="1.0797"
   stroke-linejoin="round"
   stroke-miterlimit="10"
   d="M312.659,163.264    c0.107,1.923-0.335,3.752-1.19,5.342c-1.657,3.078-4.873,5.256-8.677,5.469c-5.764,0.324-10.434-4.01-11.013-9.637    c-0.412-4.008,2.237-11.799,9.865-10.81C307.663,151.668,319.162,157.461,312.659,163.264z"
   id="path1618" />
		<path
   fill="#E1001A"
   stroke="#1A171B"
   stroke-width="1.3264"
   stroke-linejoin="round"
   stroke-miterlimit="10"
   d="M281.995,244.064    c0,0-1.51,3.053-0.943,3.98c0.568,0.928,3.943,2.811,5.115,3.287c4.925,2,6.915,0.768,6.915,0.768s0.663-4.055-4.642-6.938    C282.605,241.99,281.995,244.064,281.995,244.064z"
   id="path1620" />
		<path
   fill="#E1001A"
   stroke="#1A171B"
   stroke-width="1.3264"
   stroke-linejoin="round"
   stroke-miterlimit="10"
   d="M298.584,243.891    c0,0-0.394,3.381,0.454,4.065s4.658,1.319,5.924,1.372c5.31,0.225,6.769-1.604,6.769-1.604s-0.74-4.04-6.707-4.972    C298.463,241.732,298.584,243.891,298.584,243.891z"
   id="path1622" />
		<path
   fill="#FFDA7B"
   stroke="#1A171B"
   stroke-width="0.8487"
   stroke-miterlimit="10"
   d="M312.783,165.294    c0.101,1.772-0.307,3.456-1.096,4.921c-1.527,2.836-4.49,4.842-7.992,5.039c-5.312,0.297-11.471-4.75-8.24-10.818    c1.486-2.797,2.56,3.426,5.275-1.633c2.444,2.574,5.947,2.732,8.031,2.619C313.379,165.172,312.492,160.092,312.783,165.294z"
   id="path1624" />
		<path
   fill="#FFDA7B"
   stroke="#1A171B"
   stroke-width="0.7431"
   stroke-linecap="round"
   stroke-miterlimit="10"
   d="M307.313,170.002    c0,0,0.305,1.531-1.008,1.295"
   id="path1626" />
		<path
   fill="#038373"
   stroke="#1A171B"
   stroke-width="1.0797"
   stroke-linejoin="round"
   stroke-miterlimit="10"
   d="M290.15,213.664    c2.952,9.078,2.789,8.538,4.116,13.1c1.547,5.324,3.498,16.693,3.498,16.693s4.371,2.188,7.147,0.414    c1.016-0.998-2.176-18.053-2.265-20.113c-0.063-1.546-3.708-17.15-3.979-19.129c-0.103-0.762,0.491-6.266,0.491-6.266    s-3.261,2.468-8.906,2.15c-5.645-0.316-7.989-2.465-7.989-2.465s-2.47,6.818-2.47,13.018c0,1.702,1.729,16.961,1.636,18.844    c-0.136,2.801-0.749,3.238,0,13.961c0,0,6.318,2.291,7.057,0.77c0.376-0.776-0.482-12.841,0.626-16.398    C289.504,226.99,290.15,213.664,290.15,213.664z"
   id="path1628" />
		<path
   fill="none"
   stroke="#1A171B"
   stroke-width="0.9255"
   stroke-linejoin="round"
   stroke-miterlimit="10"
   d="M283.621,180.617    c0,0,1.168,11.594,3.097,13.754s11.6,2.5,11.6,2.5s1.006-2.24,1.454-3.123c0.096-0.191,0.165-0.318,0.195-0.346    c0.159-0.154-8.413-2.861-8.875-3.672c-0.463-0.809-0.589-11.865-0.589-11.865"
   id="path1630" />
		
			<path
   fill="none"
   stroke="#1A171B"
   stroke-width="1.0797"
   stroke-linecap="round"
   stroke-linejoin="round"
   stroke-miterlimit="10"
   d="    M290.15,213.664c0,0-0.175-0.275,1.885-1.279"
   id="path1632" />
		
			<path
   fill="none"
   stroke="#1A171B"
   stroke-width="1.5041"
   stroke-linecap="round"
   stroke-linejoin="round"
   stroke-miterlimit="10"
   d="    M282.265,199.721c0,0,8.324,4.828,16.65,0"
   id="path1634" />
		
			<path
   fill="none"
   stroke="#1A171B"
   stroke-width="1.0797"
   stroke-linecap="round"
   stroke-linejoin="round"
   stroke-miterlimit="10"
   d="    M282.265,206.602c0,0,2.635-0.473,4.453-2.734"
   id="path1636" />
		<path
   fill="#FFDA7B"
   stroke="#1A171B"
   stroke-width="0.6703"
   stroke-linecap="round"
   stroke-miterlimit="10"
   d="M312.26,168.516    c0,0-0.843-1.211-3.185-0.752"
   id="path1638" />
		<path
   fill="#FFDA7B"
   stroke="#1A171B"
   stroke-width="0.6703"
   stroke-linecap="round"
   stroke-miterlimit="10"
   d="M306.101,167.061    c0,0-1.835-1.383-3.265-0.682"
   id="path1640" />
		<path
   fill="#FFDA7B"
   stroke="#1A171B"
   stroke-width="0.6703"
   stroke-linecap="round"
   stroke-miterlimit="10"
   d="M303.013,172.443    c0,0,1.375,1.871,3.812,0.881"
   id="path1642" />
		<circle
   fill="#1A171B"
   cx="304.917"
   cy="167.272"
   r="0.59"
   id="circle1644" />
		<circle
   fill="#1A171B"
   cx="311"
   cy="168.517"
   r="0.591"
   id="circle1646" />
		<path
   fill="#F7B234"
   stroke="#1A171B"
   stroke-width="0.7712"
   stroke-miterlimit="10"
   d="M328.972,167.66l-28.173,27.537    l51.392,5.111L328.972,167.66z M328.96,173.98l15.693,22.068l-34.737-3.455L328.96,173.98z"
   id="path1648" />
		<path
   fill="#FFDA7B"
   stroke="#1A171B"
   stroke-width="0.7046"
   stroke-miterlimit="10"
   d="M298.391,196.707    c0.827,0.051,0.991-0.455,3.424-0.482c2.431-0.029,4.425-0.926,4.778-1.281c0.356-0.355,1.181-1.64,1.617-2.65    s-0.185-0.634-1.194-0.24c-1.009,0.393-3.41,0.468-3.41,0.468s1.279-0.861,1.635-1.736c0.354-0.874-0.52-0.437-1.727,0.11    c-1.207,0.546-2.67,1.994-3.491,2.43L298.391,196.707z"
   id="path1650" />
		<path
   fill="#FFDA7B"
   stroke="#1A171B"
   stroke-width="0.7046"
   stroke-linecap="round"
   stroke-miterlimit="10"
   d="M328.802,165.725    c0,0-2.237,4.041-0.6,4.041c1.001,0,2.079,1.434,2.845,0.676c1.074-1.063,1.482-1.332,1.749-1.926"
   id="path1652" />
	</g>
</g>
<polyline
   fill="#E1001A"
   stroke="#1A171B"
   stroke-width="1.3264"
   stroke-linejoin="round"
   stroke-miterlimit="10"
   points="  329.879,42.163 225.293,75.012 177.475,225.24 219.806,253.178 249.765,248.104 331.908,43.39 "
   id="polyline1658" />
<path
   fill="#B1CF7C"
   stroke="#1A171B"
   stroke-width="1.3264"
   stroke-linejoin="round"
   stroke-miterlimit="10"
   d="M321.391,43.319  L219.66,78.86c0,0-8.977,40.434-18.102,56.385c-12.025,21.016-12.041,36.041-10.978,38.165c1.061,2.126,38.032,63.033,38.032,63.033  h7.294l84.245-176.724L321.391,43.319z"
   id="path1660" />
<path
   fill="#9FB458"
   d="M255.42,138.392c0,0-35.051,30.721-28.932,65.406c0,0-3.359-10.438-6.119-16.884  c0,0-4.399-17.991,26.188-47.033L255.42,138.392z"
   id="path1662" />
<path
   fill="#089A2F"
   stroke="#089A2F"
   stroke-width="2.6528"
   d="M219.364,152.688c1.557-2.399,2.657-4.896,3.31-7.493h0.973  c0.128,4.282,0.322,7.916,0.584,10.899c0.258,2.987,1.037,5.97,2.336,8.953h4.289c5.224-6.777,8.943-15.701,19.276-26.988  c-0.009-1.005-0.016-2.053-0.016-3.179c0-6.617,0.161-13.071,0.487-19.366c0.322-6.292,0.485-13.333,0.485-21.118  c0-4.282-0.52-8.302-1.557-12.067c-1.039-3.762-2.89-7.037-5.546-9.829c-2.662-2.789-6.325-4.994-10.997-6.618  c-4.671-1.621-10.705-2.433-18.101-2.433c-8.695,0-16.933,0.974-24.719,2.919c-7.786,1.947-23.217,12.151-12.943,28.125  c4.177,6.492,12.925,6.704,12.925,6.704l2.332-1.352l5.473-23.355c3.371-1.296,7.07-1.947,11.093-1.947  c6.487,0,10.705,2.597,12.651,7.785c1.946,5.191,2.4,13.366,1.362,24.523c-10.641,0.52-19.691,1.364-27.15,2.531  c-7.463,1.167-13.561,2.952-18.296,5.352c-4.737,2.402-8.206,5.483-10.413,9.244c-2.207,3.765-3.31,8.565-3.31,14.403  c0,4.154,0.779,7.882,2.337,11.191c1.557,3.308,3.697,6.13,6.424,8.467c2.725,2.335,5.9,4.153,9.537,5.449  c3.63,1.296,7.589,1.946,11.871,1.946c4.021,0,7.655-0.584,10.898-1.752c3.244-1.167,6.064-2.69,8.468-4.573  C215.828,157.232,217.808,155.09,219.364,152.688z M213.331,148.309c-1.945,1.04-4.282,1.557-7.007,1.557  c-4.153,0-7.396-1.362-9.732-4.087c-2.335-2.725-3.504-6.55-3.504-11.483c0-3.242,0.422-6,1.267-8.273  c0.843-2.268,2.366-4.15,4.574-5.644c2.204-1.491,5.254-2.561,9.147-3.211c3.893-0.647,8.887-1.037,14.986-1.168v19.463  c-0.389,1.298-0.943,2.792-1.654,4.476c-0.715,1.688-1.751,3.246-3.114,4.671C216.932,146.04,215.277,147.272,213.331,148.309z"
   id="path1664" />
<g
   id="g1673">
	<path
   fill="#96BD0D"
   d="M223.041,152.688c1.559-2.399,2.659-4.896,3.311-7.493h0.973c0.127,4.282,0.321,7.916,0.584,10.899   c0.258,2.987,1.035,5.97,2.335,8.953h0.612c5.224-6.777,12.621-15.701,22.954-26.988c-0.01-1.005-0.016-2.053-0.016-3.179   c0-6.617,0.161-13.071,0.484-19.366c0.325-6.292,0.488-13.333,0.488-21.118c0-4.282-0.521-8.302-1.556-12.067   c-1.041-3.762-2.891-7.037-5.55-9.829c-2.659-2.789-6.325-4.994-10.995-6.618c-4.672-1.621-10.705-2.433-18.102-2.433   c-8.693,0-16.933,0.974-24.718,2.919c-7.785,1.947-20.329,6.646-15.668,21.702c3.646,11.774,14.305,11.774,14.305,11.774   s5.419-2.456,8.169-10.495c2.75-8.039,0.979-12.86,0.979-12.86c3.374-1.296,7.071-1.947,11.095-1.947   c6.486,0,10.705,2.597,12.65,7.785c1.947,5.191,2.398,13.366,1.361,24.523c-10.64,0.52-19.69,1.364-27.15,2.531   c-7.463,1.167-13.56,2.952-18.295,5.352c-4.737,2.402-8.207,5.483-10.412,9.244c-2.209,3.765-3.31,8.565-3.31,14.403   c0,4.154,0.779,7.882,2.337,11.191c1.556,3.308,3.697,6.13,6.422,8.467c2.725,2.335,5.903,4.153,9.537,5.449   c3.63,1.296,7.591,1.946,11.872,1.946c4.021,0,7.654-0.584,10.9-1.752c3.242-1.167,6.063-2.69,8.466-4.573   C219.504,157.232,221.484,155.09,223.041,152.688z M217.008,148.309c-1.946,1.04-4.281,1.557-7.007,1.557   c-4.153,0-7.396-1.362-9.73-4.087c-2.335-2.725-3.505-6.55-3.505-11.483c0-3.242,0.419-6,1.266-8.273   c0.843-2.268,2.366-4.15,4.574-5.644c2.204-1.491,5.255-2.561,9.146-3.211c3.893-0.647,8.887-1.037,14.986-1.168v19.463   c-0.387,1.298-0.941,2.792-1.653,4.476c-0.715,1.688-1.752,3.246-3.113,4.671C220.608,146.04,218.955,147.272,217.008,148.309z"
   id="path1666" />
	
		<pattern
   id="SVGID_1_"
   xlink:href="#_x31_0_lpi_50_x25_"
   patternTransform="matrix(0.5365 -0.3898 0.3898 0.5365 168.2637 -6491.2783)">
	</pattern>
	<path
   fill="url(#SVGID_1_)"
   d="M223.041,152.688c1.559-2.399,2.659-4.896,3.311-7.493h0.973c0.127,4.282,0.321,7.916,0.584,10.899   c0.258,2.987,1.035,5.97,2.335,8.953h0.612c5.224-6.777,12.621-15.701,22.954-26.988c-0.01-1.005-0.016-2.053-0.016-3.179   c0-6.617,0.161-13.071,0.484-19.366c0.325-6.292,0.488-13.333,0.488-21.118c0-4.282-0.521-8.302-1.556-12.067   c-1.041-3.762-2.891-7.037-5.55-9.829c-2.659-2.789-6.325-4.994-10.995-6.618c-4.672-1.621-10.705-2.433-18.102-2.433   c-8.693,0-16.933,0.974-24.718,2.919c-7.785,1.947-20.329,6.646-15.668,21.702c3.646,11.774,14.305,11.774,14.305,11.774   s5.419-2.456,8.169-10.495c2.75-8.039,0.979-12.86,0.979-12.86c3.374-1.296,7.071-1.947,11.095-1.947   c6.486,0,10.705,2.597,12.65,7.785c1.947,5.191,2.398,13.366,1.361,24.523c-10.64,0.52-19.69,1.364-27.15,2.531   c-7.463,1.167-13.56,2.952-18.295,5.352c-4.737,2.402-8.207,5.483-10.412,9.244c-2.209,3.765-3.31,8.565-3.31,14.403   c0,4.154,0.779,7.882,2.337,11.191c1.556,3.308,3.697,6.13,6.422,8.467c2.725,2.335,5.903,4.153,9.537,5.449   c3.63,1.296,7.591,1.946,11.872,1.946c4.021,0,7.654-0.584,10.9-1.752c3.242-1.167,6.063-2.69,8.466-4.573   C219.504,157.232,221.484,155.09,223.041,152.688z M217.008,148.309c-1.946,1.04-4.281,1.557-7.007,1.557   c-4.153,0-7.396-1.362-9.73-4.087c-2.335-2.725-3.505-6.55-3.505-11.483c0-3.242,0.419-6,1.266-8.273   c0.843-2.268,2.366-4.15,4.574-5.644c2.204-1.491,5.255-2.561,9.146-3.211c3.893-0.647,8.887-1.037,14.986-1.168v19.463   c-0.387,1.298-0.941,2.792-1.653,4.476c-0.715,1.688-1.752,3.246-3.113,4.671C220.608,146.04,218.955,147.272,217.008,148.309z"
   id="path1669" />
	<path
   fill="none"
   stroke="#089A2F"
   stroke-width="2.6528"
   d="M223.041,152.688c1.559-2.399,2.659-4.896,3.311-7.493h0.973   c0.127,4.282,0.321,7.916,0.584,10.899c0.258,2.987,1.035,5.97,2.335,8.953h0.612c5.224-6.777,12.621-15.701,22.954-26.988   c-0.01-1.005-0.016-2.053-0.016-3.179c0-6.617,0.161-13.071,0.484-19.366c0.325-6.292,0.488-13.333,0.488-21.118   c0-4.282-0.521-8.302-1.556-12.067c-1.041-3.762-2.891-7.037-5.55-9.829c-2.659-2.789-6.325-4.994-10.995-6.618   c-4.672-1.621-10.705-2.433-18.102-2.433c-8.693,0-16.933,0.974-24.718,2.919c-7.785,1.947-20.329,6.646-15.668,21.702   c3.646,11.774,14.305,11.774,14.305,11.774s5.419-2.456,8.169-10.495c2.75-8.039,0.979-12.86,0.979-12.86   c3.374-1.296,7.071-1.947,11.095-1.947c6.486,0,10.705,2.597,12.65,7.785c1.947,5.191,2.398,13.366,1.361,24.523   c-10.64,0.52-19.69,1.364-27.15,2.531c-7.463,1.167-13.56,2.952-18.295,5.352c-4.737,2.402-8.207,5.483-10.412,9.244   c-2.209,3.765-3.31,8.565-3.31,14.403c0,4.154,0.779,7.882,2.337,11.191c1.556,3.308,3.697,6.13,6.422,8.467   c2.725,2.335,5.903,4.153,9.537,5.449c3.63,1.296,7.591,1.946,11.872,1.946c4.021,0,7.654-0.584,10.9-1.752   c3.242-1.167,6.063-2.69,8.466-4.573C219.504,157.232,221.484,155.09,223.041,152.688z M217.008,148.309   c-1.946,1.04-4.281,1.557-7.007,1.557c-4.153,0-7.396-1.362-9.73-4.087c-2.335-2.725-3.505-6.55-3.505-11.483   c0-3.242,0.419-6,1.266-8.273c0.843-2.268,2.366-4.15,4.574-5.644c2.204-1.491,5.255-2.561,9.146-3.211   c3.893-0.647,8.887-1.037,14.986-1.168v19.463c-0.387,1.298-0.941,2.792-1.653,4.476c-0.715,1.688-1.752,3.246-3.113,4.671   C220.608,146.04,218.955,147.272,217.008,148.309z"
   id="path1671" />
</g>
<path
   fill="#FFFFFF"
   stroke="#1A171B"
   stroke-width="1.3264"
   stroke-linejoin="round"
   stroke-miterlimit="10"
   d="M321.391,43.319  c-11.488,33.676-12.42,36.491-38.95,87.665c-24.166,46.614-44.475,70.081-46.533,105.458c0,0-10.584-44.554-23.055-63.861  c-12.472-19.306-57.538-72.699-71.533-122.46l-11.273,1.767l89.169,198.021l0.463,0.387l27.431-4.184l78.954-200.145L321.391,43.319  z"
   id="path1675" />
<polygon
   fill="#8D1831"
   stroke="#1A171B"
   stroke-width="1.3264"
   stroke-linejoin="round"
   stroke-miterlimit="10"
   points="  134.243,46.753 82.148,61.159 156.09,226.135 217.907,253.291 220.369,252.964 135.595,47.118 "
   id="polygon1677" />
<path
   fill="#E1001A"
   stroke="#1A171B"
   stroke-width="1.3264"
   stroke-linejoin="round"
   stroke-miterlimit="10"
   d="M133.221,47.885  l83.75,202.408l0.876,0.703l0.061,2.295c0,0-0.228,1.285,17.214-1.039c17.439-2.328,16.939-3.518,16.939-3.518l-0.672-2.209  l0.543-0.898L331.908,43.39c0,0,0.107-0.33-0.073-0.465c-0.532-0.398-1.916-1.286-2.346-0.433  c-1.561,3.098-79.865,203.168-79.865,203.168s1.826,1.701-4.31,2.519c-6.137,0.819-24.046,3.653-25.068,2.677  c0,0-0.614-1.258-1.17-2.076c-0.555-0.818-83.264-201.92-83.264-201.92S133.724,46.036,133.221,47.885z"
   id="path1679" />
<path
   fill="#FBC340"
   d="M192.327,150.332c0,0,17.626,21.895,25.224,39.521s12.461,40.114,12.461,40.114s-10.636-30.39-18.843-45.281  C202.963,169.795,192.327,150.332,192.327,150.332z"
   id="path1681" />
<path
   fill="#FBC340"
   d="M240.647,223.861c0,0,1.518-16.688,18.233-44.949C258.881,178.912,242.168,217.755,240.647,223.861z"
   id="path1683" />
<path
   fill="#FBC340"
   d="M240.647,237.869c0,0,2.063-13.066,11.819-36.164C252.467,201.705,245.51,226.928,240.647,237.869z"
   id="path1685" />
<path
   fill="#FBC340"
   d="M228.055,239.388c0,0-2.861-25.351-23.205-57.261C204.85,182.127,223.932,223.861,228.055,239.388z"
   id="path1687" />
<g
   id="g1696">
	<polygon
   fill="#EDE100"
   points="134.789,258.876 78.557,268.949 78.557,219.057 134.789,208.982  "
   id="polygon1689" />
	<pattern
   id="SVGID_2_"
   xlink:href="#_x31_0_dpi_30_x25_"
   patternTransform="matrix(0.7712 0 0 0.7712 -1581.9429 -1785.3345)">
	</pattern>
	<polygon
   fill="url(#SVGID_2_)"
   points="134.789,258.876 78.557,268.949 78.557,219.057 134.789,208.982  "
   id="polygon1692" />
	<polygon
   fill="none"
   stroke="#1A171B"
   stroke-width="1.3264"
   stroke-linejoin="round"
   stroke-miterlimit="10"
   points="   134.789,258.876 78.557,268.949 78.557,219.057 134.789,208.982  "
   id="polygon1694" />
</g>
<polygon
   fill="#F0E54C"
   stroke="#1A171B"
   stroke-width="1.3264"
   stroke-linejoin="round"
   stroke-miterlimit="10"
   points="  111.438,195.311 57.673,201.301 78.557,219.057 134.789,208.982 "
   id="polygon1698" />
<polygon
   fill="#E19800"
   stroke="#1A171B"
   stroke-width="1.3264"
   stroke-linejoin="round"
   stroke-miterlimit="10"
   points="  57.354,251.093 78.557,268.949 78.557,219.057 57.354,201.199 "
   id="polygon1700" />
<polygon
   fill="#6FC6D9"
   stroke="#1A171B"
   stroke-width="1.2232"
   stroke-linejoin="round"
   stroke-miterlimit="10"
   points="  111.949,203.311 78.119,215.442 78.119,166.824 111.949,161.344 "
   id="polygon1702" />
<polygon
   fill="#93894C"
   points="108.5,205.193 119.969,206.817 117.599,209.764 99.706,208.359 "
   id="polygon1704" />
<path
   fill="#5D7D86"
   d="M98.575,207.469l-5.063-9.678c0,0,2.718-8.674,14.7-4.095l-0.063,10.353L98.575,207.469z"
   id="path1706" />
<path
   fill="none"
   stroke="#5D7D86"
   stroke-width="2.3136"
   stroke-miterlimit="10"
   d="M100.863,193.696  c0,0,3.354-27.532-2.933-29.501"
   id="path1708" />
<path
   fill="none"
   stroke="#5D7D86"
   stroke-width="2.3136"
   stroke-miterlimit="10"
   d="M99.843,193.696c0,0-0.045-26.291-6.33-28.26"
   id="path1710" />
<g
   id="g1714">
	<path
   fill="#5D7D86"
   d="M98.687,193.721c0,0,0.003-0.041,0.008-0.119c0.006-0.063,0.013-0.16,0.014-0.309   c0.008-0.285-0.003-0.706-0.052-1.211c-0.05-0.507-0.148-1.096-0.312-1.717c-0.082-0.309-0.188-0.623-0.301-0.941   c-0.139-0.305-0.246-0.641-0.423-0.935c-0.157-0.308-0.327-0.61-0.532-0.884c-0.182-0.295-0.403-0.548-0.624-0.793   c-0.206-0.263-0.453-0.465-0.682-0.67c-0.222-0.215-0.455-0.387-0.684-0.531c-0.226-0.146-0.425-0.304-0.62-0.404   c-0.198-0.1-0.372-0.188-0.514-0.259c-0.288-0.145-0.453-0.228-0.453-0.228s0.178,0.049,0.487,0.135   c0.315,0.08,0.766,0.199,1.275,0.441c0.265,0.102,0.543,0.23,0.817,0.408c0.281,0.165,0.589,0.332,0.863,0.564   c0.289,0.216,0.587,0.446,0.849,0.725c0.285,0.258,0.54,0.552,0.782,0.859c0.265,0.294,0.457,0.633,0.682,0.951   c0.198,0.33,0.39,0.662,0.553,0.994c0.325,0.664,0.571,1.313,0.745,1.883s0.285,1.059,0.348,1.413   c0.032,0.171,0.054,0.323,0.067,0.433c0.012,0.094,0.018,0.145,0.018,0.145L98.687,193.721z"
   id="path1712" />
</g>
<g
   id="g1723">
	<polygon
   fill="#E65093"
   points="110.398,120.782 67.956,118.782 67.956,71.414 110.398,77.796  "
   id="polygon1716" />
	<pattern
   id="SVGID_3_"
   xlink:href="#_x31_0_dpi_30_x25_"
   patternTransform="matrix(0.7712 0 0 0.7712 -1581.9429 -1785.3345)">
	</pattern>
	<polygon
   fill="url(#SVGID_3_)"
   points="110.398,120.782 67.956,118.782 67.956,71.414 110.398,77.796  "
   id="polygon1719" />
	<polygon
   fill="none"
   stroke="#1A171B"
   stroke-width="1.3264"
   stroke-linejoin="round"
   stroke-miterlimit="10"
   points="   110.398,120.782 67.956,118.782 67.956,71.414 110.398,77.796  "
   id="polygon1721" />
</g>
<polygon
   fill="#B53B8A"
   stroke="#1A171B"
   stroke-width="1.3264"
   stroke-linejoin="round"
   stroke-miterlimit="10"
   points="  53.328,119.782 67.956,118.782 67.956,71.414 53.328,76.796 "
   id="polygon1725" />
<polygon
   fill="#530E2E"
   stroke="#1A171B"
   stroke-width="1.3264"
   stroke-linejoin="round"
   stroke-miterlimit="10"
   points="  53.328,119.782 67.956,118.782 110.455,120.716 95.033,122.44 "
   id="polygon1727" />
<polygon
   fill="#64C4E3"
   stroke="#1A171B"
   stroke-width="1.2232"
   stroke-linejoin="round"
   stroke-miterlimit="10"
   points="  86.69,160.171 49.457,164.174 78.119,166.824 111.949,161.344 "
   id="polygon1729" />
<polygon
   fill="#8566A4"
   stroke="#1A171B"
   stroke-width="1.2232"
   stroke-linejoin="round"
   stroke-miterlimit="10"
   points="  49.439,206.163 78.119,215.442 78.119,166.824 49.439,164.195 "
   id="polygon1731" />
<g
   id="g1740">
	<polygon
   fill="#17A351"
   points="101.307,166.824 55.808,163.824 55.808,120.788 101.307,119.456  "
   id="polygon1733" />
	
		<pattern
   id="SVGID_4_"
   xlink:href="#_x31_0_lpi_40_x25_"
   patternTransform="matrix(-0.2173 -0.6077 0.2782 -0.4748 -6448.1108 -15953.7373)">
	</pattern>
	<polygon
   fill="url(#SVGID_4_)"
   points="101.307,166.824 55.808,163.824 55.808,120.788 101.307,119.456  "
   id="polygon1736" />
	<polygon
   fill="none"
   stroke="#1A171B"
   stroke-width="0.8974"
   stroke-linejoin="round"
   stroke-miterlimit="10"
   points="   101.307,166.824 55.808,163.824 55.808,120.788 101.307,119.456  "
   id="polygon1738" />
</g>
<polygon
   fill="#89C284"
   stroke="#1A171B"
   stroke-width="1.3264"
   stroke-linejoin="round"
   stroke-miterlimit="10"
   points="  101.307,166.824 110.316,161.225 110.316,121.387 101.307,119.456 "
   id="polygon1742" />
<path
   fill="#FFDA7B"
   stroke="#1A171B"
   stroke-width="0.6091"
   stroke-miterlimit="10"
   d="M171.546,216.119  c0,0,0.965,3.578-0.482,6.83l-1.326-6.14C169.737,216.81,170.53,214.231,171.546,216.119z"
   id="path1744" />
<circle
   fill="#1A171B"
   cx="364.113"
   cy="65.854"
   r="1.171"
   id="circle1746" />
<path
   fill="#AE082F"
   stroke="#1A171B"
   stroke-width="1.1568"
   stroke-miterlimit="10"
   d="M167.525,180.357  c1.719,1.325,2.153,14.921,3.174,19.051c1.019,4.13,2.323,6.117,3.727,8.633c1.406,2.516,3.713,5.058,2.775,5.359  c-1.762,0.568-5.322,2.196-5.938,2.986c-0.616,0.792-2.108,2.373-2.812,2.021c-0.704-0.351-2.988-22.1-3.163-24.712  C165.113,191.084,167.525,180.357,167.525,180.357z"
   id="path1748" />
<g
   id="g1754">
	<path
   fill="#FFEC00"
   d="M153.793,256.754c-0.594,0-1.069-0.204-1.414-0.607c-0.623-0.73-0.782-2.096-0.471-4.061l0.534-2.854   c0.025-0.137,0.144-0.235,0.283-0.235h1.758c0.113,0,0.215,0.066,0.262,0.168c0.776,1.696,1.949,4.792,1.093,6.478   c-0.283,0.558-0.759,0.909-1.416,1.044C154.195,256.732,153.986,256.754,153.793,256.754   C153.793,256.754,153.793,256.754,153.793,256.754z"
   id="path1750" />
	<path
   fill="#1A171B"
   d="M154.482,249.285c1.271,2.777,2.349,6.613-0.118,7.119c-0.206,0.042-0.396,0.062-0.571,0.062   c-1.743,0-1.97-1.998-1.601-4.335l0.532-2.846H154.482 M154.482,248.71h-1.758c-0.277,0-0.515,0.197-0.566,0.47l-0.532,2.846   c-0.327,2.067-0.146,3.512,0.534,4.308c0.396,0.464,0.961,0.709,1.633,0.709c0.215,0,0.445-0.024,0.685-0.073   c0.737-0.151,1.295-0.564,1.616-1.196c0.91-1.793-0.291-4.984-1.088-6.727C154.912,248.841,154.708,248.71,154.482,248.71   L154.482,248.71z"
   id="path1752" />
</g>
<g
   id="g1760">
	<path
   fill="#FFEC00"
   d="M167.809,255.819c-1.929,0-4.885-1.011-6.865-3.858c-0.044-0.063-0.061-0.142-0.046-0.218l0.443-2.352   c0.024-0.128,0.131-0.224,0.261-0.233c0,0,2.156-0.161,2.163-0.161c0.125,0,0.236,0.081,0.274,0.201   c0.375,1.187,1.777,1.782,3.134,2.358c1.563,0.663,3.179,1.35,3.038,2.993C170.145,255.321,169.202,255.819,167.809,255.819   C167.809,255.819,167.809,255.819,167.809,255.819z"
   id="path1756" />
	<path
   fill="#1A171B"
   d="M163.765,249.285c0.867,2.748,6.395,2.492,6.159,5.24c-0.052,0.609-0.906,1.006-2.115,1.006   c-1.918,0-4.727-0.999-6.629-3.734l0.443-2.352L163.765,249.285 M163.765,248.709c-0.015,0-0.029,0.001-0.043,0.002l-2.142,0.16   c-0.26,0.02-0.475,0.211-0.523,0.468l-0.443,2.352c-0.028,0.151,0.005,0.309,0.093,0.436c2.044,2.938,5.103,3.981,7.102,3.981   c1.554,0,2.61-0.602,2.689-1.533c0.158-1.852-1.632-2.611-3.212-3.283c-1.296-0.55-2.637-1.12-2.972-2.179   C164.238,248.871,164.014,248.709,163.765,248.709L163.765,248.709z"
   id="path1758" />
</g>
<path
   fill="#8D1831"
   stroke="#1A171B"
   stroke-width="0.9873"
   stroke-linejoin="round"
   stroke-miterlimit="10"
   d="M122.387,207.543  c0,0-0.124,1.937-4.94,1.937c-5.43,0-5.552-1.937-5.552-1.937l-4.424-15.048h19.343L122.387,207.543z"
   id="path1762" />
<path
   fill="#C90135"
   stroke="#1A171B"
   stroke-width="1.1568"
   stroke-miterlimit="10"
   d="M175.303,239.954c0,0-0.17,2.083-3.025,2.48  c-1.839,0.255-2.269,0.606-5.996,2.427c-1.633,0.797-4.531-0.499-7.531,0.338c-2.878,0.805-4.352-1.516-7.334-1.143  c-2.001,0.254-3.277-1.965-4.517-1.77c-3.421,0.541-2.885-2.333-2.885-2.333s8.763-28.755,8.313-39.646  c-0.674-16.27,0.627-21.733,0.627-21.733s3.837-0.485,4.287-1.497c1.519-3.402,4.503-4.049,5.146-0.221  c0.196,1.184,4.432,2.215,4.432,2.215s1.32,1.547,1.349,2.408c0.104,3.254-0.921,10.936-0.645,20.225  C167.876,213.453,175.303,239.954,175.303,239.954z"
   id="path1764" />
<path
   fill="#E7E78F"
   stroke="#1A171B"
   stroke-width="1.3264"
   stroke-linejoin="round"
   stroke-miterlimit="10"
   d="M328.76,75.012"
   id="path1766" />
<path
   fill="#330B28"
   d="M108.213,193.696l4.174,13.96c0,0,1.099,1.76,6.078,1.326c0,0-2.586-1.088-5.126-6.121  c-2.538-5.035-3.431-8.348-3.431-8.348L108.213,193.696z"
   id="path1768" />
<ellipse
   fill="#8D1831"
   stroke="#1A171B"
   stroke-width="1.007"
   stroke-linejoin="round"
   stroke-miterlimit="10"
   cx="117.142"
   cy="192.496"
   rx="9.671"
   ry="2.676"
   id="ellipse1770" />
<path
   fill="#C90135"
   stroke="#1A171B"
   stroke-width="1.1568"
   stroke-miterlimit="10"
   d="M153.612,178.428  c-4.34,0.637-5.884,9.436-13.098,7.145c-5.333-1.695-3.118,11.234-1.383,14.512c1.735,3.278,7.995-2.289,10.093-6.801  c2.272-4.89,3.569-7.613,3.569-7.613"
   id="path1772" />
<path
   fill="#FFDA7B"
   stroke="#1A171B"
   stroke-width="0.6091"
   stroke-miterlimit="10"
   d="M138.43,177.645  c0.3-0.838,1.353,0.662,1.545,1.507c0.191,0.845,0.333,1.665-0.485,2.124c-0.818,0.457-0.598,0.385-0.213,0.771  c0.383,0.387,0.774,0.748,0,1.23S137.898,179.129,138.43,177.645z"
   id="path1774" />
<g
   id="g1802">
	<path
   fill="#1A171B"
   stroke="#1A171B"
   stroke-width="0.5757"
   stroke-linejoin="round"
   stroke-miterlimit="10"
   d="M137.885,170.816   c2.176,0,3.556,4.225,2.636,9.873c-0.921,5.649-1.004,7.531-1.004,7.531l-1.172-0.334c0,0,2.671-17.714-3.058-16.995   L137.885,170.816z"
   id="path1776" />
	<path
   fill="#FFEC00"
   stroke="#1A171B"
   stroke-width="0.5757"
   stroke-linejoin="round"
   stroke-miterlimit="10"
   d="M132.895,176.441   c0,0-1.16-5.207,2.856-5.625c0.911-0.091,2.134,0,2.134,0s-2.719,0.523-2.572,5.68   C135.457,181.652,132.895,176.441,132.895,176.441z"
   id="path1778" />
	<g
   id="g1784">
		<path
   fill="#FFEC00"
   d="M133.261,196.137c-3.286,0-3.908-1.257-3.968-1.4l-3.508-16.116c-0.018-0.08,0-0.164,0.048-0.229    c0.048-0.066,0.122-0.109,0.203-0.118c0,0,12.478-1.343,12.488-1.343c0.067,0,0.132,0.023,0.185,0.067    c0.06,0.05,0.097,0.122,0.103,0.2l1.174,16.065c-0.012,0.146-0.32,2.296-5.109,2.785    C134.303,196.106,133.759,196.137,133.261,196.137z"
   id="path1780" />
		<path
   fill="#1A171B"
   d="M138.523,177.218l1.174,16.065c0,0-0.236,2.007-4.852,2.479c-0.59,0.061-1.117,0.087-1.585,0.087    c-3.189,0-3.702-1.224-3.702-1.224l-3.492-16.066L138.523,177.218 M138.523,176.643c-0.021,0-0.041,0.001-0.062,0.003    l-12.457,1.341c-0.163,0.018-0.31,0.104-0.405,0.235c-0.096,0.133-0.13,0.3-0.096,0.459l3.492,16.066    c0.007,0.034,0.018,0.068,0.032,0.101c0.067,0.161,0.761,1.576,4.233,1.576c0.509,0,1.062-0.029,1.644-0.09    c4.932-0.504,5.335-2.731,5.365-2.983c0.004-0.036,0.005-0.073,0.002-0.109l-1.174-16.065c-0.011-0.155-0.085-0.3-0.206-0.4    C138.788,176.689,138.658,176.643,138.523,176.643L138.523,176.643z"
   id="path1782" />
	</g>
	<path
   fill="#FFEC00"
   stroke="#1A171B"
   stroke-width="0.6053"
   stroke-miterlimit="10"
   d="M138.578,177.18   c0.073,0.682-2.701,1.531-6.195,1.898c-3.498,0.365-6.388,0.109-6.461-0.572c-0.071-0.682,2.703-1.531,6.198-1.896   C135.615,176.243,138.505,176.498,138.578,177.18z"
   id="path1786" />
	<g
   id="g1792">
		<path
   fill="#FFEC00"
   d="M129.215,188.11c-0.745-1.905-1.991-5.096-3.838-6.157l-0.222-0.127l-0.152,0.205    c-0.712,0.958-1.582,1.659-2.076,2.04c-0.252-3.081-0.097-6.293,0.593-6.852c0.888,1.392,1.4,2.431,1.653,2.941l0.032,0.064    l0.058,0.042c1.584,1.148,3.06,2.405,3.075,2.418l0.059,0.051l0.077,0.014c1.379,0.25,2.052,0.489,2.262,3.173    c0.134,1.708-0.813,2.507-1.28,2.795C129.382,188.536,129.302,188.332,129.215,188.11z"
   id="path1788" />
		<path
   fill="#1A171B"
   d="M123.495,177.721c0.747,1.205,1.191,2.104,1.42,2.568l0.063,0.128l0.115,0.083    c1.574,1.142,3.042,2.393,3.057,2.404l0.118,0.102l0.153,0.027c1.214,0.221,1.824,0.331,2.027,2.912    c0.098,1.258-0.436,1.967-0.861,2.324c-0.033-0.084-0.068-0.173-0.104-0.264c-0.758-1.941-2.028-5.19-3.963-6.302l-0.444-0.255    l-0.305,0.41c-0.517,0.696-1.124,1.254-1.598,1.647C122.991,180.772,123.167,178.51,123.495,177.721 M123.629,176.857    c-1.673,0.32-0.939,7.786-0.939,7.786c-0.009-0.089,1.438-0.952,2.544-2.44c2.09,1.2,3.421,5.386,4.075,6.914    c0,0,1.907-0.734,1.713-3.217c-0.217-2.762-0.958-3.154-2.498-3.434c0,0-1.48-1.264-3.093-2.433    C125.089,179.342,124.553,178.282,123.629,176.857L123.629,176.857z"
   id="path1790" />
	</g>
	
		<ellipse
   fill="#FFEC00"
   stroke="#1A171B"
   stroke-width="0.5757"
   stroke-miterlimit="10"
   cx="122.261"
   cy="180.357"
   rx="2.292"
   ry="4.363"
   id="ellipse1794" />
	<g
   id="g1800">
		<path
   fill="#FFFFFF"
   d="M130.916,177.618c0.519-0.104,1.171-0.194,1.984-0.245c0.365-0.022,0.689-0.032,0.979-0.032    c0.383,0,0.699,0.018,0.958,0.045L130.916,177.618z"
   id="path1796" />
		<path
   fill="#1A171B"
   d="M133.878,177.053c-0.294,0-0.625,0.01-0.997,0.033c-3.074,0.192-3.939,0.938-3.939,0.938l7.301-0.433    C136.243,177.591,136.021,177.053,133.878,177.053L133.878,177.053z"
   id="path1798" />
	</g>
</g>
<path
   fill="#930C28"
   d="M166.04,199.514c0.079-0.961,0.425-4.303,0.636-2.797s0.199,2.443,0.199,2.443L166.04,199.514z"
   id="path1804" />
<path
   fill="#930C28"
   d="M153.193,199.248c0.079-0.96,0.425-4.303,0.637-2.797s0.199,3.063,0.199,3.063L153.193,199.248z"
   id="path1806" />
<path
   fill="#930C28"
   d="M163.721,199.779c0.172-0.961,1.316-4.877,1.78-3.371c0.462,1.506,0.05,3.018,0.05,3.018L163.721,199.779z"
   id="path1808" />
<path
   fill="#FFDA7B"
   stroke="#1A171B"
   stroke-width="0.6091"
   stroke-miterlimit="10"
   d="M141.519,177.812  c1.656,1.806,0.651,2.315-0.355,3.424c-0.995,1.099-2.082-0.251-1.527-1.192c0.556-0.939,1.178-1.278,1.206-1.447  C140.873,178.428,140.954,177.197,141.519,177.812z"
   id="path1810" />
<g
   id="g1814">
	<path
   fill="#C90135"
   stroke="#1A171B"
   stroke-width="0.9078"
   stroke-miterlimit="10"
   d="M158.7,176.441   c5.193-0.447,17.211,3.077,13.362-7.036c0.058-0.487,0.095-0.981,0.095-1.483c0-6.824-5.457-12.357-12.19-12.357   c-6.731,0-12.188,5.533-12.188,12.357c0,0.191,0.019,0.377,0.027,0.566C142.267,174.775,153.841,176.861,158.7,176.441z"
   id="path1812" />
</g>
<path
   fill="#FFDA7B"
   stroke="#1A171B"
   stroke-width="0.6091"
   stroke-miterlimit="10"
   d="M156.99,165.437  c-0.979,0.892-4.871,0.424-6.668,0.151c-0.233,0.857-0.366,1.758-0.366,2.689c0,5.605,4.481,10.15,10.012,10.15  s10.014-4.545,10.014-10.15c0-0.405-0.031-0.803-0.075-1.195C163.479,168.939,156.99,165.437,156.99,165.437z"
   id="path1816" />
<path
   fill="none"
   stroke="#1A171B"
   stroke-width="0.6632"
   stroke-miterlimit="10"
   d="M152.322,198.993c0,0,6.018,2.462,15.203,0"
   id="path1818" />
<path
   fill="none"
   stroke="#1A171B"
   stroke-width="0.6632"
   stroke-miterlimit="10"
   d="M152.322,200.439c0,0,6.018,2.463,15.203,0"
   id="path1820" />
<path
   fill="#930C28"
   d="M169.13,243.139c-1.023-2.701-1.117-21.338,0.607-14.607s2.587,13.584,2.587,13.584  S170.116,242.447,169.13,243.139z"
   id="path1822" />
<path
   fill="#FFDA7B"
   stroke="#1A171B"
   stroke-width="0.6091"
   stroke-linecap="round"
   stroke-miterlimit="10"
   d="M157.045,174.775  c0.705,0.621,2.586,1.209,4.292,0.268"
   id="path1824" />
<path
   fill="#FFDA7B"
   stroke="#1A171B"
   stroke-width="0.6091"
   stroke-linecap="round"
   stroke-miterlimit="10"
   d="M152.635,170.164  c0,0,2.295-1.94,4.646,0"
   id="path1826" />
<path
   fill="#FFDA7B"
   stroke="#1A171B"
   stroke-width="0.6091"
   stroke-linecap="round"
   stroke-miterlimit="10"
   d="M162.124,170.595  c0,0,2.293-1.94,4.646,0"
   id="path1828" />
<circle
   fill="#1A171B"
   cx="155.605"
   cy="169.949"
   r="0.647"
   id="circle1830" />
<circle
   fill="#1A171B"
   cx="165.511"
   cy="170.596"
   r="0.646"
   id="circle1832" />
<path
   fill="none"
   stroke="#DDB550"
   stroke-width="0.7712"
   stroke-miterlimit="10"
   d="M155.279,178.428c0,0,1.206,3.699,4.688,3.699  c3.565,0,4.722-3.328,4.722-3.328"
   id="path1834" />
<g
   id="g1838">
	<path
   fill="none"
   stroke="#AB70A7"
   stroke-width="0.7712"
   d="M55.563,175.604c-0.99-0.331-1.843-0.812-2.56-1.441v-1.479   l18.718,1.915c0,0.681-0.025,1.431-0.078,2.25c-0.054,0.821-0.118,1.64-0.199,2.454c-0.076,0.814-0.17,1.598-0.274,2.348   s-0.21,1.424-0.314,2.023l-1.591-0.258l-2.344-6.518l-6.415-0.776v9.37c0.203,0.012,0.456,0.023,0.755,0.039   c0.299,0.014,0.605,0.036,0.92,0.066c0.313,0.03,0.63,0.066,0.948,0.111c0.319,0.047,0.598,0.09,0.835,0.134   c1.228,0.226,2.413,0.601,3.556,1.128c1.16,0.536,2.188,1.248,3.083,2.139c0.902,0.902,1.632,1.99,2.18,3.264   c0.549,1.283,0.828,2.75,0.828,4.395c0,1.585-0.289,2.899-0.869,3.938c-0.574,1.031-1.353,1.797-2.335,2.293   c-0.967,0.494-2.101,0.739-3.392,0.742c-1.27,0.004-2.618-0.215-4.045-0.646c-0.116-0.035-0.409-0.131-0.878-0.287   c-0.462-0.154-0.979-0.325-1.551-0.512c-0.567-0.186-1.13-0.369-1.687-0.551c-0.554-0.183-0.994-0.321-1.322-0.421l-4.528-1.369   v-1.48c0.388-0.173,0.796-0.296,1.222-0.371c0.428-0.075,0.873-0.086,1.338-0.033V175.604z M62.441,188.27   c-0.372-0.074-0.732-0.127-1.079-0.156c-0.343-0.028-0.629-0.025-0.856,0.012v11.385c0.091,0.054,0.233,0.123,0.429,0.205   c0.193,0.082,0.394,0.16,0.603,0.232c0.207,0.074,0.408,0.139,0.608,0.195c0.199,0.055,0.354,0.1,0.471,0.133   c1.396,0.397,2.507,0.178,3.323-0.675c0.827-0.86,1.241-2.283,1.241-4.263c0-1.892-0.385-3.469-1.148-4.719   C65.274,189.383,64.07,188.6,62.441,188.27z"
   id="path1836" />
</g>
<g
   id="g1842">
	<path
   fill="#F4BBD3"
   d="M73.025,105.858l0.051-1.351c0.354-0.165,0.74-0.333,1.163-0.505c0.419-0.17,0.871-0.286,1.352-0.345   l0.664-19.441c-0.419-0.125-0.845-0.306-1.272-0.544c-0.433-0.239-0.798-0.493-1.106-0.761l0.049-1.28l9.037,1.282l-0.032,1.245   c-0.196,0.149-0.452,0.29-0.767,0.423c-0.313,0.134-0.646,0.233-0.991,0.296l-0.542,19.211l6.06,0.436l0.397-18.851   c-0.7-0.355-1.265-0.747-1.694-1.177l0.029-1.234l7.892,1.119l-0.015,1.204c-0.182,0.146-0.414,0.283-0.694,0.415   c-0.282,0.132-0.593,0.229-0.936,0.29l-0.29,18.571l5.646,0.404l0.163-18.232c-0.634-0.296-1.185-0.676-1.648-1.139l0.013-1.196   l7.879,1.118l-0.003,1.165c-0.261,0.169-0.551,0.309-0.877,0.418c-0.326,0.111-0.687,0.181-1.08,0.21l-0.07,17.971l3.323,0.238   c0,0.49-0.019,1.055-0.057,1.693c-0.037,0.641-0.09,1.291-0.154,1.953c-0.066,0.663-0.142,1.312-0.228,1.944   c-0.085,0.634-0.187,1.208-0.299,1.724l-1.115-0.051l-1.536-5.399L73.025,105.858z"
   id="path1840" />
</g>
<g
   id="g1846">
	<path
   fill="#00632E"
   d="M117.026,193.561c0,0-0.181-1.604-0.495-4.414c-0.364-2.799-0.799-6.806-1.639-11.551   c-0.389-2.375-0.889-4.933-1.482-7.611c-0.61-2.676-1.345-5.471-2.291-8.274c-0.474-1.401-1.038-2.79-1.656-4.157   c-0.616-1.369-1.34-2.697-2.199-3.914c-1.68-2.432-4.154-4.364-7.047-4.21c-1.422,0.033-2.873,0.485-4.229,1.156l-0.479,0.235   l-0.26,0.151l-0.165,0.114c-0.241,0.178-0.459,0.398-0.637,0.648c-0.36,0.501-0.573,1.141-0.655,1.824   c-0.161,1.375,0.151,2.865,0.707,4.199c0.563,1.332,1.383,2.576,2.437,3.432c1.043,0.873,2.354,1.203,3.456,0.627   c0.554-0.27,1.043-0.709,1.472-1.207c0.428-0.507,0.815-1.041,0.958-1.596c0.334-1.134-0.175-2.371-0.977-3.259   c-0.804-0.905-1.866-1.544-2.953-1.883c-1.089-0.333-2.226-0.362-3.201-0.032c-0.984,0.313-1.771,0.975-2.324,1.729   c-1.103,1.546-1.413,3.285-1.583,4.652c-0.147,1.391-0.124,2.498-0.093,3.25c0.044,0.752,0.067,1.153,0.067,1.153l-0.23,0.022   c0,0-0.037-0.404-0.107-1.16c-0.058-0.758-0.119-1.876-0.018-3.302c0.131-1.405,0.368-3.206,1.511-4.938   c0.574-0.846,1.439-1.635,2.559-2.034c1.11-0.417,2.404-0.425,3.637-0.093c1.232,0.341,2.438,1.003,3.408,2.02   c0.483,0.507,0.9,1.117,1.167,1.825c0.269,0.704,0.347,1.529,0.153,2.313c-0.19,0.804-0.644,1.448-1.094,2.05   c-0.468,0.603-1.051,1.171-1.796,1.573c-0.737,0.407-1.666,0.577-2.533,0.427c-0.872-0.144-1.654-0.549-2.321-1.049   c-1.338-1.018-2.299-2.398-3.003-3.899c-0.684-1.509-1.132-3.189-0.996-4.991c0.075-0.894,0.326-1.833,0.871-2.659   c0.271-0.412,0.607-0.783,1.001-1.097l0.325-0.236l0.254-0.162l0.593-0.32c1.493-0.793,3.18-1.403,4.99-1.506   c1.806-0.129,3.69,0.361,5.217,1.311c1.548,0.932,2.775,2.211,3.783,3.563c1.998,2.733,3.271,5.739,4.23,8.676   c0.979,2.938,1.639,5.838,2.148,8.597c0.521,2.758,0.851,5.385,1.12,7.807c0.462,4.854,0.656,8.902,0.663,11.738   c0.038,2.835-0.034,4.453-0.034,4.453L117.026,193.561z"
   id="path1844" />
</g>
<g
   id="g1850">
	<path
   fill="#70B121"
   d="M117.027,193.576c0,0-0.538-2.252-1.407-6.209c-0.426-1.98-0.999-4.371-1.646-7.108   c-0.633-2.739-1.39-5.823-2.208-9.199c-0.811-3.37-1.628-7.053-2.481-10.944c-0.923-4.15-0.207-8.811,1.93-12.884   c1.065-2.044,2.563-3.925,4.418-5.45c1.844-1.53,4.104-2.672,6.521-3.142c2.412-0.524,4.934-0.342,7.287,0.241   c1.171,0.322,2.326,0.702,3.417,1.212l0.84,0.381c0.262,0.14,0.502,0.251,0.78,0.414c0.558,0.31,1.065,0.636,1.568,1   c2.002,1.434,3.659,3.474,4.473,5.837c0.834,2.355,0.854,4.908,0.299,7.237c-1.127,4.679-4.28,8.623-8.266,10.771   c-1.992,1.075-4.214,1.666-6.397,1.679c-2.169-0.029-4.26-0.367-6.186-1.155c-1.907-0.774-3.634-2.081-4.575-3.865   c-0.946-1.749-0.97-4.015,0.219-5.547c0.57-0.769,1.418-1.269,2.278-1.502c0.881-0.201,1.696-0.239,2.541-0.142   c0.827,0.11,1.634,0.421,2.253,0.952c0.623,0.525,1.027,1.233,1.24,1.943c0.42,1.438,0.229,2.848-0.143,4.032   c-0.385,1.191-0.979,2.2-1.669,2.975c-1.377,1.596-3.116,2.078-4.207,2.065c-0.557,0.005-0.979-0.069-1.258-0.127   c-0.276-0.069-0.42-0.104-0.42-0.104l0.063-0.223c0,0,0.138,0.031,0.406,0.092c0.269,0.05,0.674,0.111,1.202,0.095   c1.037-0.013,2.658-0.495,3.935-2.038c0.64-0.75,1.187-1.726,1.527-2.863c0.33-1.13,0.469-2.467,0.063-3.744   c-0.205-0.632-0.57-1.229-1.106-1.662c-0.532-0.437-1.224-0.69-1.963-0.774c-0.726-0.075-1.555-0.013-2.286,0.176   c-0.729,0.22-1.413,0.646-1.866,1.291c-0.947,1.278-0.907,3.193-0.048,4.696c0.854,1.53,2.413,2.676,4.186,3.347   c1.773,0.682,3.794,0.965,5.79,0.936c1.993-0.059,4.001-0.635,5.804-1.658c3.605-2.031,6.441-5.768,7.353-9.987   c0.454-2.1,0.373-4.323-0.379-6.309c-0.739-1.992-2.16-3.685-3.938-4.901c-0.442-0.303-0.919-0.588-1.378-0.829   c-0.223-0.125-0.51-0.252-0.762-0.378l-0.747-0.315c-1.015-0.446-2.069-0.76-3.124-1.025c-2.116-0.467-4.301-0.565-6.338-0.067   c-1.022,0.223-2.005,0.588-2.922,1.069c-0.924,0.465-1.792,1.039-2.571,1.713c-1.585,1.322-2.83,3.003-3.799,4.781   c-1.927,3.584-2.569,7.687-1.894,11.334c0.744,3.899,1.448,7.586,2.098,10.988c0.658,3.404,1.216,6.542,1.702,9.328   c0.245,1.392,0.474,2.693,0.686,3.896c0.173,1.209,0.332,2.318,0.476,3.321c0.573,4.009,0.859,6.308,0.859,6.308L117.027,193.576z"
   id="path1848" />
</g>
<g
   id="g1854">
	<path
   fill="#00632E"
   d="M114.601,193.488c0.001-0.016,0.032-0.191,0.063-0.532c0.037-0.348,0.062-0.857,0.063-1.47   c-0.002-0.307-0.02-0.639-0.038-0.99c-0.044-0.345-0.053-0.723-0.131-1.094c-0.057-0.38-0.134-0.768-0.247-1.149   c-0.083-0.397-0.252-0.76-0.388-1.146c-0.169-0.364-0.352-0.729-0.563-1.065c-0.244-0.308-0.438-0.672-0.733-0.914   c-0.271-0.27-0.535-0.54-0.848-0.714c-0.295-0.199-0.575-0.401-0.877-0.5c-0.292-0.117-0.56-0.247-0.807-0.327   c-0.256-0.057-0.478-0.105-0.661-0.146c-0.372-0.081-0.584-0.128-0.584-0.128s0.217,0.01,0.597,0.029   c0.192,0.01,0.426,0.021,0.693,0.035c0.265,0.038,0.558,0.124,0.885,0.196c0.337,0.054,0.665,0.212,1.021,0.374   c0.372,0.137,0.708,0.375,1.061,0.627c0.379,0.225,0.657,0.576,0.996,0.888c0.303,0.337,0.579,0.714,0.841,1.098   c0.226,0.399,0.487,0.795,0.655,1.216c0.199,0.412,0.359,0.829,0.493,1.24c0.157,0.407,0.238,0.813,0.352,1.195   c0.087,0.385,0.168,0.75,0.228,1.091c0.114,0.681,0.182,1.254,0.208,1.664c0.032,0.418,0.031,0.674,0.033,0.657L114.601,193.488z"
   id="path1852" />
</g>
<g
   id="g1858">
	<path
   fill="#00632E"
   d="M116.302,193.74c0,0,0.002-0.095,0.006-0.273c0.009-0.164,0.022-0.407,0.039-0.715   c0.044-0.607,0.135-1.46,0.311-2.471c0.351-2.008,1.068-4.703,2.563-7.039c0.371-0.581,0.786-1.135,1.247-1.633   c0.455-0.501,0.95-0.952,1.47-1.329c1.029-0.768,2.133-1.24,3.093-1.491c0.476-0.144,0.93-0.201,1.32-0.269   c0.398-0.032,0.74-0.083,1.024-0.085c0.566-0.005,0.89-0.008,0.89-0.008s-0.316,0.057-0.871,0.154   c-0.276,0.049-0.603,0.154-0.977,0.248c-0.364,0.129-0.783,0.254-1.205,0.463c-0.856,0.385-1.777,0.984-2.563,1.809   c-0.397,0.405-0.76,0.867-1.08,1.366c-0.323,0.495-0.6,1.03-0.835,1.585c-0.946,2.222-1.183,4.689-1.191,6.502   c-0.005,0.91,0.041,1.666,0.092,2.185c0.028,0.254,0.051,0.454,0.066,0.59c0.019,0.122,0.028,0.188,0.028,0.188L116.302,193.74z"
   id="path1856" />
</g>
<g
   id="g1862">
	<path
   fill="#00632E"
   d="M115.601,193.502c0,0,0.154-1.634,0.387-4.085c0.244-2.453,0.555-5.737,1.08-9.015   c0.15-0.82,0.273-1.637,0.461-2.439c0.157-0.802,0.375-1.585,0.579-2.339c0.246-0.747,0.454-1.475,0.767-2.132   c0.261-0.672,0.627-1.263,0.949-1.801c0.193-0.25,0.379-0.49,0.556-0.719c0.17-0.232,0.406-0.392,0.585-0.571   c0.351-0.378,0.794-0.534,1.09-0.735c0.326-0.156,0.613-0.209,0.792-0.276c0.183-0.058,0.28-0.088,0.28-0.088   s-0.094,0.042-0.27,0.121c-0.17,0.089-0.442,0.171-0.739,0.358c-0.268,0.234-0.663,0.422-0.955,0.824   c-0.15,0.193-0.35,0.359-0.484,0.6c-0.14,0.232-0.287,0.477-0.44,0.732c-0.243,0.549-0.519,1.131-0.691,1.801   c-0.221,0.647-0.338,1.375-0.488,2.107c-0.109,0.748-0.229,1.515-0.289,2.311c-0.089,0.786-0.115,1.6-0.167,2.405   c-0.134,3.239-0.059,6.503-0.014,8.954c0.058,2.457,0.095,4.095,0.095,4.095L115.601,193.502z"
   id="path1860" />
</g>
<g
   id="g1866">
	<path
   fill="#00632E"
   d="M113.807,145.252c0,0,0.082-0.161,0.226-0.442c0.156-0.278,0.346-0.684,0.532-1.164   c0.184-0.488,0.34-1.076,0.459-1.695c0.016-0.313,0.092-0.634,0.059-0.953c0.008-0.323-0.053-0.632-0.11-0.934   c-0.098-0.288-0.192-0.568-0.359-0.784c-0.159-0.215-0.324-0.4-0.509-0.532c-0.074-0.089-0.169-0.149-0.266-0.206   c-0.096-0.057-0.175-0.143-0.285-0.181c-0.105-0.051-0.208-0.102-0.308-0.15c-0.114-0.035-0.225-0.068-0.33-0.101   c-0.213-0.088-0.439-0.097-0.64-0.145c-0.203-0.055-0.388-0.06-0.545-0.079c-0.314-0.036-0.517-0.079-0.517-0.079l-0.047-0.147   c0,0,0.146-0.128,0.441-0.313c0.147-0.093,0.328-0.208,0.564-0.277c0.234-0.068,0.499-0.19,0.821-0.191   c0.162-0.009,0.331-0.018,0.505-0.027c0.179,0.034,0.363,0.068,0.554,0.104c0.196,0.021,0.379,0.126,0.569,0.217   c0.2,0.08,0.374,0.209,0.536,0.363c0.343,0.284,0.586,0.688,0.744,1.092c0.168,0.411,0.241,0.831,0.289,1.244   c0.016,0.412,0.019,0.816-0.051,1.198c-0.029,0.39-0.169,0.742-0.248,1.092c-0.138,0.331-0.235,0.662-0.393,0.945   c-0.16,0.282-0.286,0.555-0.447,0.787c-0.313,0.473-0.575,0.839-0.794,1.066c-0.207,0.239-0.325,0.375-0.325,0.375L113.807,145.252   z"
   id="path1864" />
</g>
<path
   fill="none"
   stroke="#5D7D86"
   stroke-width="3.856"
   stroke-miterlimit="10"
   d="M97.931,166.602"
   id="path1868" />
</svg>