<svg xmlns="http://www.w3.org/2000/svg" width="140" height="140">
<g>
<path fill="#ffc20e" d="m139.4 70c0-36.35-31.2-65.99-69.4-65.99-38.22 0-69.38 29.65-69.38 65.99s31.16 65.98 69.38 65.98c38.21 0 69.38-29.64 69.38-65.98z"/>
<path fill="#fff" d="m111.8 72.41h-7.35c-0.86 0-1.57 0.7-1.57 1.57v7.03c0 0.87 0.71 1.57 1.57 1.57h7.35c0.86 0 1.57-0.7 1.57-1.57v-7.03c0-0.87-0.71-1.57-1.57-1.57zm0 25.15h-7.35c-0.86 0-1.57 0.7-1.57 1.57v7.03c0 0.87 0.71 1.57 1.57 1.57h7.35c0.86 0 1.57-0.7 1.57-1.57v-7.03c0-0.87-0.71-1.57-1.57-1.57zm-33.55-23.58v7.03c0 0.87 0.7 1.57 1.58 1.57h19.39c0.869 0 1.569-0.7 1.569-1.57v-7.03c0-0.87-0.71-1.58-1.569-1.58h-19.39c-0.88 0-1.58 0.71-1.58 1.58zm0 25.15v7.03c0 0.87 0.7 1.57 1.58 1.57h19.39c0.869 0 1.569-0.7 1.569-1.57v-7.03c0-0.87-0.71-1.57-1.569-1.57h-19.39c-0.88 0-1.58 0.7-1.58 1.57zm8.39-14.15h-19.39c-0.87 0-1.57 0.71-1.57 1.57v7.03c0 0.87 0.7 1.58 1.57 1.58h19.39c0.87 0 1.57-0.71 1.57-1.58v-7.03c0-0.86-0.7-1.57-1.57-1.57zm25.16 0h-19.4c-0.87 0-1.57 0.71-1.57 1.57v7.03c0 0.87 0.7 1.58 1.57 1.58h19.4c0.86 0 1.57-0.71 1.57-1.58v-7.03c0-0.86-0.71-1.57-1.57-1.57zm0 25.16h-19.4c-0.87 0-1.57 0.7-1.57 1.57v7.03c0 0.87 0.7 1.57 1.57 1.57h19.4c0.86 0 1.57-0.7 1.57-1.57v-7.03c0-0.87-0.71-1.57-1.57-1.57zm-25.16 0h-19.39c-0.87 0-1.57 0.7-1.57 1.57v7.03c0 0.87 0.7 1.57 1.57 1.57h19.39c0.87 0 1.57-0.7 1.57-1.57v-7.03c0-0.87-0.7-1.57-1.57-1.57zm-51.01-70.34c0.1 4.8 3.95 8.67 8.76 8.67 4.8 0 8.7-3.87 8.75-8.67 1.7 0 3.06-1.42 3.06-3.13 0-6.51-5.3-11.82-11.81-11.82-6.52 0-11.83 5.31-11.83 11.82 0 1.71 1.38 3.09 3.07 3.13zm2.47-9.07v0.89c0 0.87 0.7 1.57 1.57 1.57s1.57-0.7 1.57-1.57v-3.01c0.51-0.2 1.03-0.35 1.57-0.45v3.46c0 0.87 0.71 1.57 1.58 1.57 0.86 0 1.57-0.7 1.57-1.57v-3.46c0.54 0.1 1.07 0.25 1.57 0.45v3.01c0 0.87 0.7 1.57 1.57 1.57s1.58-0.7 1.58-1.57v-0.89c1.46 1.55 2.38 3.63 2.38 5.94h-17.35c0-2.31 0.92-4.39 2.39-5.94zm3.3 19.42h5.982v12.65h-5.982zm29.1 23.85c2 0.47 4.03-0.78 4.49-2.81 0.22-0.96 0-1.91-0.43-2.7l1.81-7.39 2.25 0.56c0.49 0.11 1 0 1.38-0.33 0.38-0.32 0.59-0.8 0.55-1.3l-1.03-15.08c0-0.36-0.28-0.67-0.64-0.76-0.35-0.1-0.72 0.1-0.91 0.38l-7.87 12.91c-0.26 0.42-0.3 0.95-0.11 1.41s0.59 0.8 1.07 0.92l2.25 0.55-1.53 6.25-7.86-1.81-8.87-12.99c-1.06-1.55-2.64-1.66-4.53-1.66v29.42h4.5v33.57h-9v-23.64h-3.27v23.65h-9v-33.58h4.5v-29.42c-2.17 0-3.95 0.25-4.85 2.22l-12.5 27.37c-0.85 1.89 0 4.11 1.86 4.97 1.87 0.85 4.1 0 4.96-1.86l6.04-13.22v6.79c-1.74 0-3.14 1.41-3.14 3.15v33.58c0 1.73 1.4 3.14 3.14 3.14 0 2.48 2.01 4.5 4.5 4.5 2.48 0 4.5-2.02 4.5-4.5 0.59 0 1.15-0.17 1.63-0.46 0.48 0.29 1.04 0.46 1.64 0.46 0 2.48 2.01 4.5 4.5 4.5 2.48 0 4.5-2.02 4.5-4.5 1.73 0 3.14-1.41 3.14-3.14v-33.58c0-1.74-1.41-3.15-3.14-3.15v-11.38l3.54 5.19c0.53 0.78 1.34 1.33 2.25 1.54l9.7 2.23z"/>
</g>
</svg>
